<svg xmlns="http://www.w3.org/2000/svg" xmlns:xlink="http://www.w3.org/1999/xlink" width="500" zoomAndPan="magnify" viewBox="0 0 375 374.999991" height="500" preserveAspectRatio="xMidYMid meet" version="1.0"><defs><clipPath id="7522724598"><path d="M 44 6 L 347 6 L 347 354 L 44 354 Z M 44 6 " clip-rule="nonzero"/></clipPath><clipPath id="aae6706819"><path d="M 289.035156 -1.824219 L 356.246094 54.59375 L 85.722656 376.847656 L 18.515625 320.429688 Z M 289.035156 -1.824219 " clip-rule="nonzero"/></clipPath><clipPath id="122b0db997"><path d="M 289.035156 -1.824219 L 356.246094 54.59375 L 85.722656 376.847656 L 18.515625 320.429688 Z M 289.035156 -1.824219 " clip-rule="nonzero"/></clipPath><clipPath id="d9ecc87cd6"><path d="M 289.035156 -1.824219 L 356.246094 54.59375 L 85.722656 376.847656 L 18.515625 320.429688 Z M 289.035156 -1.824219 " clip-rule="nonzero"/></clipPath><clipPath id="a768917bb5"><path d="M 28 11 L 115 11 L 115 87 L 28 87 Z M 28 11 " clip-rule="nonzero"/></clipPath><clipPath id="3ef8bce258"><path d="M 110.191406 -16.789062 L 375.144531 299.367188 L 264.777344 391.863281 L -0.175781 75.707031 Z M 110.191406 -16.789062 " clip-rule="nonzero"/></clipPath><clipPath id="b140048d65"><path d="M 110.191406 -16.789062 L 375.144531 299.367188 L 264.777344 391.863281 L -0.175781 75.707031 Z M 110.191406 -16.789062 " clip-rule="nonzero"/></clipPath><clipPath id="6aeb2ef108"><path d="M 37 24 L 137 24 L 137 112 L 37 112 Z M 37 24 " clip-rule="nonzero"/></clipPath><clipPath id="b4c5c4a1ee"><path d="M 110.191406 -16.789062 L 375.144531 299.367188 L 264.777344 391.863281 L -0.175781 75.707031 Z M 110.191406 -16.789062 " clip-rule="nonzero"/></clipPath><clipPath id="817d0ad4c7"><path d="M 110.191406 -16.789062 L 375.144531 299.367188 L 264.777344 391.863281 L -0.175781 75.707031 Z M 110.191406 -16.789062 " clip-rule="nonzero"/></clipPath><clipPath id="6c6372a3f2"><path d="M 43 35 L 163 35 L 163 139 L 43 139 Z M 43 35 " clip-rule="nonzero"/></clipPath><clipPath id="a5cd605dad"><path d="M 110.191406 -16.789062 L 375.144531 299.367188 L 264.777344 391.863281 L -0.175781 75.707031 Z M 110.191406 -16.789062 " clip-rule="nonzero"/></clipPath><clipPath id="7d7fc2fb49"><path d="M 110.191406 -16.789062 L 375.144531 299.367188 L 264.777344 391.863281 L -0.175781 75.707031 Z M 110.191406 -16.789062 " clip-rule="nonzero"/></clipPath><clipPath id="0fc0ede0b1"><path d="M 151.839844 33.046875 L 164.804688 48.519531 L 54.371094 141.066406 L 41.40625 125.59375 Z M 151.839844 33.046875 " clip-rule="nonzero"/></clipPath><clipPath id="1fc8bdbace"><path d="M 151.839844 33.046875 L 164.804688 48.519531 L 54.546875 140.917969 L 41.582031 125.449219 Z M 151.839844 33.046875 " clip-rule="nonzero"/></clipPath><clipPath id="b88ac214b9"><path d="M 48 24 L 71 24 L 71 45 L 48 45 Z M 48 24 " clip-rule="nonzero"/></clipPath><clipPath id="da71abdf1e"><path d="M 110.191406 -16.789062 L 375.144531 299.367188 L 264.777344 391.863281 L -0.175781 75.707031 Z M 110.191406 -16.789062 " clip-rule="nonzero"/></clipPath><clipPath id="271e861ddb"><path d="M 110.191406 -16.789062 L 375.144531 299.367188 L 264.777344 391.863281 L -0.175781 75.707031 Z M 110.191406 -16.789062 " clip-rule="nonzero"/></clipPath><clipPath id="bba65dd7cd"><path d="M 260 288 L 347 288 L 347 364 L 260 364 Z M 260 288 " clip-rule="nonzero"/></clipPath><clipPath id="eddfe04065"><path d="M 110.191406 -16.789062 L 375.144531 299.367188 L 264.777344 391.863281 L -0.175781 75.707031 Z M 110.191406 -16.789062 " clip-rule="nonzero"/></clipPath><clipPath id="98b1ea5a0f"><path d="M 110.191406 -16.789062 L 375.144531 299.367188 L 264.777344 391.863281 L -0.175781 75.707031 Z M 110.191406 -16.789062 " clip-rule="nonzero"/></clipPath><clipPath id="accc275e34"><path d="M 237 263 L 338 263 L 338 351 L 237 351 Z M 237 263 " clip-rule="nonzero"/></clipPath><clipPath id="6f45b2cb5e"><path d="M 110.191406 -16.789062 L 375.144531 299.367188 L 264.777344 391.863281 L -0.175781 75.707031 Z M 110.191406 -16.789062 " clip-rule="nonzero"/></clipPath><clipPath id="daf6e7ad65"><path d="M 110.191406 -16.789062 L 375.144531 299.367188 L 264.777344 391.863281 L -0.175781 75.707031 Z M 110.191406 -16.789062 " clip-rule="nonzero"/></clipPath><clipPath id="f4c5601a00"><path d="M 212 236 L 332 236 L 332 340 L 212 340 Z M 212 236 " clip-rule="nonzero"/></clipPath><clipPath id="b5e168d624"><path d="M 110.191406 -16.789062 L 375.144531 299.367188 L 264.777344 391.863281 L -0.175781 75.707031 Z M 110.191406 -16.789062 " clip-rule="nonzero"/></clipPath><clipPath id="dc0a11d1a9"><path d="M 110.191406 -16.789062 L 375.144531 299.367188 L 264.777344 391.863281 L -0.175781 75.707031 Z M 110.191406 -16.789062 " clip-rule="nonzero"/></clipPath><clipPath id="7d4b506512"><path d="M 320.394531 234.175781 L 333.359375 249.648438 L 222.929688 342.195312 L 209.964844 326.722656 Z M 320.394531 234.175781 " clip-rule="nonzero"/></clipPath><clipPath id="cea2a9e198"><path d="M 320.394531 234.175781 L 333.359375 249.648438 L 223.105469 342.046875 L 210.140625 326.578125 Z M 320.394531 234.175781 " clip-rule="nonzero"/></clipPath><clipPath id="fbd6ae93b8"><path d="M 304 330 L 327 330 L 327 351 L 304 351 Z M 304 330 " clip-rule="nonzero"/></clipPath><clipPath id="6a21e5bfe3"><path d="M 110.191406 -16.789062 L 375.144531 299.367188 L 264.777344 391.863281 L -0.175781 75.707031 Z M 110.191406 -16.789062 " clip-rule="nonzero"/></clipPath><clipPath id="53da9c48b0"><path d="M 110.191406 -16.789062 L 375.144531 299.367188 L 264.777344 391.863281 L -0.175781 75.707031 Z M 110.191406 -16.789062 " clip-rule="nonzero"/></clipPath><clipPath id="282870e05b"><path d="M 104 91 L 271 91 L 271 284 L 104 284 Z M 104 91 " clip-rule="nonzero"/></clipPath><clipPath id="5651a7ce1d"><path d="M 110.191406 -16.789062 L 375.144531 299.367188 L 264.777344 391.863281 L -0.175781 75.707031 Z M 110.191406 -16.789062 " clip-rule="nonzero"/></clipPath><clipPath id="15229c6eda"><path d="M 110.191406 -16.789062 L 375.144531 299.367188 L 264.777344 391.863281 L -0.175781 75.707031 Z M 110.191406 -16.789062 " clip-rule="nonzero"/></clipPath></defs><g clip-path="url(#7522724598)"><g clip-path="url(#aae6706819)"><g clip-path="url(#122b0db997)"><g clip-path="url(#d9ecc87cd6)"><path fill="#000000" d="M 221.609375 169.925781 C 225.957031 164.746094 231.507812 160.699219 237.726562 158.125 L 260.433594 153.769531 C 270.292969 151.890625 279.125 146.453125 285.304688 138.546875 L 345.75 52.039062 C 347.390625 49.9375 347.082031 46.898438 345.113281 45.25 C 343.144531 43.597656 340.222656 43.921875 338.582031 46.023438 L 282.003906 120.476562 C 279.734375 123.378906 275.753906 123.976562 273.152344 121.792969 C 270.554688 119.613281 270.355469 115.507812 272.675781 112.644531 L 330.683594 39.394531 C 332.375 37.332031 332.117188 34.335938 330.148438 32.683594 C 328.179688 31.035156 325.234375 31.335938 323.519531 33.378906 L 264.195312 105.527344 C 261.851562 108.371094 257.824219 108.925781 255.222656 106.742188 C 252.625 104.5625 252.472656 100.496094 254.867188 97.695312 L 315.648438 26.773438 C 317.335938 24.707031 317.125 21.753906 315.15625 20.101562 C 313.191406 18.449219 310.195312 18.714844 308.429688 20.714844 L 246.339844 90.539062 C 243.921875 93.316406 239.84375 93.832031 237.246094 91.652344 C 234.644531 89.46875 234.542969 85.445312 237.007812 82.707031 L 300.535156 14.085938 C 302.324219 12.105469 302.136719 9.171875 300.167969 7.519531 C 298.199219 5.867188 295.15625 6.089844 293.367188 8.070312 L 218.640625 82.582031 C 211.925781 90.042969 208.144531 99.675781 207.957031 109.71875 L 207.601562 132.835938 C 206.148438 139.453125 203.121094 145.574219 198.773438 150.753906 C 198.773438 150.753906 139.449219 231.980469 67.332031 297.90625 C 67.332031 297.90625 28.457031 328.777344 52.097656 348.621094 C 75.734375 368.464844 99.402344 324.828125 99.402344 324.828125 C 151.886719 242.421875 221.609375 169.925781 221.609375 169.925781 Z M 221.609375 169.925781 " fill-opacity="1" fill-rule="nonzero"/></g></g></g></g><g clip-path="url(#a768917bb5)"><g clip-path="url(#3ef8bce258)"><g clip-path="url(#b140048d65)"><path fill="#000000" d="M 113.460938 20.695312 L 107.035156 13.027344 C 105.394531 11.070312 102.011719 11.214844 99.476562 13.339844 L 31.332031 70.449219 C 28.792969 72.574219 28.0625 75.878906 29.703125 77.835938 L 36.128906 85.503906 C 37.765625 87.457031 41.152344 87.316406 43.6875 85.191406 L 111.832031 28.085938 C 114.367188 25.957031 115.097656 22.648438 113.460938 20.695312 " fill-opacity="1" fill-rule="nonzero"/></g></g></g><g clip-path="url(#6aeb2ef108)"><g clip-path="url(#b4c5c4a1ee)"><g clip-path="url(#817d0ad4c7)"><path fill="#000000" d="M 136.121094 33.734375 L 129.695312 26.066406 C 128.058594 24.117188 124.671875 24.253906 122.136719 26.378906 L 40.210938 95.039062 C 37.675781 97.164062 36.945312 100.476562 38.578125 102.425781 L 45.003906 110.09375 C 46.644531 112.050781 50.03125 111.90625 52.566406 109.78125 L 134.492188 41.125 C 137.03125 39 137.757812 35.691406 136.121094 33.734375 " fill-opacity="1" fill-rule="nonzero"/></g></g></g><g clip-path="url(#6c6372a3f2)"><g clip-path="url(#a5cd605dad)"><g clip-path="url(#7d7fc2fb49)"><g clip-path="url(#0fc0ede0b1)"><g clip-path="url(#1fc8bdbace)"><path fill="#000000" d="M 161.460938 44.53125 L 155.035156 36.863281 C 153.398438 34.910156 150.015625 35.050781 147.476562 37.175781 L 46.410156 121.875 C 43.871094 124.003906 43.144531 127.3125 44.78125 129.261719 L 51.207031 136.929688 C 52.84375 138.886719 56.230469 138.746094 58.765625 136.617188 L 159.832031 51.921875 C 162.371094 49.792969 163.101562 46.484375 161.460938 44.53125 " fill-opacity="1" fill-rule="nonzero"/></g></g></g></g></g><g clip-path="url(#b88ac214b9)"><g clip-path="url(#da71abdf1e)"><g clip-path="url(#271e861ddb)"><path fill="#000000" d="M 59.585938 25.621094 L 50.398438 33.320312 C 47.863281 35.445312 47.527344 39.226562 49.652344 41.761719 L 52.214844 44.820312 L 70.589844 29.421875 L 68.027344 26.363281 C 65.902344 23.824219 62.125 23.492188 59.585938 25.621094 " fill-opacity="1" fill-rule="nonzero"/></g></g></g><g clip-path="url(#bba65dd7cd)"><g clip-path="url(#eddfe04065)"><g clip-path="url(#98b1ea5a0f)"><path fill="#000000" d="M 345.238281 297.261719 L 338.8125 289.59375 C 337.175781 287.640625 333.789062 287.78125 331.25 289.90625 L 263.109375 347.015625 C 260.570312 349.140625 259.84375 352.449219 261.480469 354.402344 L 267.90625 362.070312 C 269.546875 364.027344 272.929688 363.882812 275.464844 361.757812 L 343.609375 304.648438 C 346.144531 302.523438 346.878906 299.21875 345.238281 297.261719 " fill-opacity="1" fill-rule="nonzero"/></g></g></g><g clip-path="url(#accc275e34)"><g clip-path="url(#6f45b2cb5e)"><g clip-path="url(#daf6e7ad65)"><path fill="#000000" d="M 336.359375 272.671875 L 329.933594 265.003906 C 328.296875 263.046875 324.914062 263.1875 322.375 265.3125 L 240.449219 333.972656 C 237.914062 336.097656 237.183594 339.40625 238.820312 341.363281 L 245.246094 349.03125 C 246.882812 350.984375 250.269531 350.839844 252.804688 348.714844 L 334.734375 280.054688 C 337.269531 277.929688 338 274.625 336.359375 272.671875 " fill-opacity="1" fill-rule="nonzero"/></g></g></g><g clip-path="url(#f4c5601a00)"><g clip-path="url(#b5e168d624)"><g clip-path="url(#dc0a11d1a9)"><g clip-path="url(#7d4b506512)"><g clip-path="url(#cea2a9e198)"><path fill="#000000" d="M 330.164062 245.832031 L 323.738281 238.164062 C 322.101562 236.210938 318.71875 236.351562 316.179688 238.480469 L 215.113281 323.175781 C 212.574219 325.304688 211.84375 328.609375 213.480469 330.566406 L 219.90625 338.234375 C 221.542969 340.183594 224.929688 340.046875 227.46875 337.917969 L 328.53125 253.21875 C 331.070312 251.09375 331.800781 247.785156 330.164062 245.832031 " fill-opacity="1" fill-rule="nonzero"/></g></g></g></g></g><g clip-path="url(#fbd6ae93b8)"><g clip-path="url(#6a21e5bfe3)"><g clip-path="url(#53da9c48b0)"><path fill="#000000" d="M 325.292969 333.339844 L 322.726562 330.277344 L 304.351562 345.675781 L 306.914062 348.738281 C 309.039062 351.273438 312.816406 351.601562 315.355469 349.476562 L 324.542969 341.777344 C 327.082031 339.648438 327.414062 335.871094 325.292969 333.339844 " fill-opacity="1" fill-rule="nonzero"/></g></g></g><g clip-path="url(#282870e05b)"><g clip-path="url(#5651a7ce1d)"><g clip-path="url(#15229c6eda)"><path fill="#000000" d="M 104.109375 106.742188 L 252.453125 283.753906 L 270.828125 268.351562 L 122.484375 91.34375 L 104.109375 106.742188 " fill-opacity="1" fill-rule="nonzero"/></g></g></g></svg>