<svg xmlns="http://www.w3.org/2000/svg" xmlns:xlink="http://www.w3.org/1999/xlink" width="500" zoomAndPan="magnify" viewBox="0 0 375 374.999991" height="500" preserveAspectRatio="xMidYMid meet" version="1.0"><defs><g/><clipPath id="2e2cf0f611"><path d="M 108 84 L 276 84 L 276 276 L 108 276 Z M 108 84 " clip-rule="nonzero"/></clipPath><clipPath id="fb5e447364"><path d="M 243.261719 79.484375 L 280.296875 110.492188 L 131.710938 287.949219 L 94.675781 256.9375 Z M 243.261719 79.484375 " clip-rule="nonzero"/></clipPath><clipPath id="5b30e0b222"><path d="M 243.261719 79.484375 L 280.296875 110.492188 L 131.710938 287.949219 L 94.675781 256.9375 Z M 243.261719 79.484375 " clip-rule="nonzero"/></clipPath><clipPath id="fe9ce94e3f"><path d="M 243.261719 79.484375 L 280.296875 110.492188 L 131.710938 287.949219 L 94.675781 256.9375 Z M 243.261719 79.484375 " clip-rule="nonzero"/></clipPath><clipPath id="e9849a000c"><path d="M 245 230 L 290 230 L 290 283 L 245 283 Z M 245 230 " clip-rule="nonzero"/></clipPath><clipPath id="a055ed70d9"><path d="M 121.277344 79.484375 L 308.058594 235.742188 L 253.824219 300.574219 L 67.039062 144.320312 Z M 121.277344 79.484375 " clip-rule="nonzero"/></clipPath><clipPath id="1a33748137"><path d="M 121.277344 79.484375 L 308.058594 235.742188 L 253.824219 300.574219 L 67.039062 144.320312 Z M 121.277344 79.484375 " clip-rule="nonzero"/></clipPath><clipPath id="6c3372cb9d"><path d="M 237 224 L 282 224 L 282 277 L 237 277 Z M 237 224 " clip-rule="nonzero"/></clipPath><clipPath id="1304b6b201"><path d="M 121.277344 79.484375 L 308.058594 235.742188 L 253.824219 300.574219 L 67.039062 144.320312 Z M 121.277344 79.484375 " clip-rule="nonzero"/></clipPath><clipPath id="81d7ba6b7b"><path d="M 121.277344 79.484375 L 308.058594 235.742188 L 253.824219 300.574219 L 67.039062 144.320312 Z M 121.277344 79.484375 " clip-rule="nonzero"/></clipPath><clipPath id="32088d0b8c"><path d="M 223 210 L 281 210 L 281 277 L 223 277 Z M 223 210 " clip-rule="nonzero"/></clipPath><clipPath id="9db6c0e9ed"><path d="M 121.277344 79.484375 L 308.058594 235.742188 L 253.824219 300.574219 L 67.039062 144.320312 Z M 121.277344 79.484375 " clip-rule="nonzero"/></clipPath><clipPath id="c656fe948b"><path d="M 121.277344 79.484375 L 308.058594 235.742188 L 253.824219 300.574219 L 67.039062 144.320312 Z M 121.277344 79.484375 " clip-rule="nonzero"/></clipPath><clipPath id="62d646afd1"><path d="M 115 127 L 260 127 L 260 253 L 115 253 Z M 115 127 " clip-rule="nonzero"/></clipPath><clipPath id="919d211e0c"><path d="M 121.277344 79.484375 L 308.058594 235.742188 L 253.824219 300.574219 L 67.039062 144.320312 Z M 121.277344 79.484375 " clip-rule="nonzero"/></clipPath><clipPath id="de168d9c27"><path d="M 121.277344 79.484375 L 308.058594 235.742188 L 253.824219 300.574219 L 67.039062 144.320312 Z M 121.277344 79.484375 " clip-rule="nonzero"/></clipPath><clipPath id="d04c7661c3"><path d="M 257 245 L 289 245 L 289 277 L 257 277 Z M 257 245 " clip-rule="nonzero"/></clipPath><clipPath id="73edca982c"><path d="M 121.277344 79.484375 L 308.058594 235.742188 L 253.824219 300.574219 L 67.039062 144.320312 Z M 121.277344 79.484375 " clip-rule="nonzero"/></clipPath><clipPath id="2d4151caaf"><path d="M 121.277344 79.484375 L 308.058594 235.742188 L 253.824219 300.574219 L 67.039062 144.320312 Z M 121.277344 79.484375 " clip-rule="nonzero"/></clipPath><clipPath id="40f93b435e"><path d="M 85 97 L 131 97 L 131 150 L 85 150 Z M 85 97 " clip-rule="nonzero"/></clipPath><clipPath id="34db25e837"><path d="M 121.277344 79.484375 L 308.058594 235.742188 L 253.824219 300.574219 L 67.039062 144.320312 Z M 121.277344 79.484375 " clip-rule="nonzero"/></clipPath><clipPath id="0470dfb380"><path d="M 121.277344 79.484375 L 308.058594 235.742188 L 253.824219 300.574219 L 67.039062 144.320312 Z M 121.277344 79.484375 " clip-rule="nonzero"/></clipPath><clipPath id="da9e383501"><path d="M 93 103 L 138 103 L 138 156 L 93 156 Z M 93 103 " clip-rule="nonzero"/></clipPath><clipPath id="aa023f2124"><path d="M 121.277344 79.484375 L 308.058594 235.742188 L 253.824219 300.574219 L 67.039062 144.320312 Z M 121.277344 79.484375 " clip-rule="nonzero"/></clipPath><clipPath id="157fe9c3ca"><path d="M 121.277344 79.484375 L 308.058594 235.742188 L 253.824219 300.574219 L 67.039062 144.320312 Z M 121.277344 79.484375 " clip-rule="nonzero"/></clipPath><clipPath id="6f3c3ca1b8"><path d="M 94 102 L 152 102 L 152 170 L 94 170 Z M 94 102 " clip-rule="nonzero"/></clipPath><clipPath id="2e01505169"><path d="M 121.277344 79.484375 L 308.058594 235.742188 L 253.824219 300.574219 L 67.039062 144.320312 Z M 121.277344 79.484375 " clip-rule="nonzero"/></clipPath><clipPath id="bc688faea5"><path d="M 121.277344 79.484375 L 308.058594 235.742188 L 253.824219 300.574219 L 67.039062 144.320312 Z M 121.277344 79.484375 " clip-rule="nonzero"/></clipPath><clipPath id="052df2d36b"><path d="M 87 103 L 118 103 L 118 135 L 87 135 Z M 87 103 " clip-rule="nonzero"/></clipPath><clipPath id="7bb69f0910"><path d="M 121.277344 79.484375 L 308.058594 235.742188 L 253.824219 300.574219 L 67.039062 144.320312 Z M 121.277344 79.484375 " clip-rule="nonzero"/></clipPath><clipPath id="030c5c9276"><path d="M 121.277344 79.484375 L 308.058594 235.742188 L 253.824219 300.574219 L 67.039062 144.320312 Z M 121.277344 79.484375 " clip-rule="nonzero"/></clipPath></defs><g fill="#000000" fill-opacity="1"><g transform="translate(94.733228, 73.839119)"><g><path d="M 1.90625 -2.875 L 2.742188 -2.4375 L 3.785156 -2.628906 L 6.382812 -4.273438 L 8.085938 -5.671875 L 8.617188 -6.519531 L 8.296875 -7.902344 L 7.390625 -8.980469 L 6.984375 -9.714844 L 4.292969 -13.511719 L 4.117188 -14.457031 L 4.613281 -15.285156 L 5.355469 -15.90625 L 6.214844 -16.289062 L 6.835938 -16.933594 L 7.605469 -17.363281 L 8.335938 -17.925781 L 9.109375 -18.351562 L 10.535156 -19.453125 L 11.042969 -20.339844 L 10.628906 -21.707031 L 8.363281 -24.890625 L 7.5 -25.359375 L 6.542969 -25.121094 L 4.726562 -23.96875 L 2.917969 -22.496094 L 1.386719 -21.699219 L 0.617188 -21.113281 L -0.304688 -20.898438 L -1.226562 -21.382812 L -1.925781 -22.390625 L -2.332031 -23.125 L -3.53125 -24.699219 L -3.671875 -25.667969 L -3.3125 -26.613281 L -2.15625 -27.414062 L -1.0625 -28.070312 L -0.4375 -28.554688 L 0.308594 -29.019531 L 1.015625 -29.617188 L 3.804688 -31.449219 L 4.273438 -32.3125 L 4.132812 -33.28125 L 2.785156 -35.070312 L 1.90625 -36.492188 L 0.722656 -37.269531 L -0.167969 -37.242188 L -2.304688 -35.703125 L -3.171875 -35.261719 L -4.527344 -34.210938 L -5.226562 -33.832031 L -6.257812 -33.011719 L -7.003906 -32.546875 L -8.070312 -31.695312 L -9.476562 -30.71875 L -10.175781 -30.339844 L -12.015625 -29.0625 L -12.722656 -28.464844 L -13.757812 -27.800781 L -14.273438 -26.851562 L -14.039062 -26.054688 L -13.121094 -24.5 L -12.261719 -23.496094 L -9.601562 -19.359375 L -9.101562 -18.796875 L -8.539062 -18.0625 L -8.160156 -17.363281 L -7.515625 -16.585938 L -7.136719 -15.886719 L -6.695312 -15.175781 L -6.148438 -14.542969 L -5.644531 -13.664062 Z M 1.90625 -2.875 "/></g></g></g><g fill="#000000" fill-opacity="1"><g transform="translate(116.917434, 58.414124)"><g><path d="M 14.121094 -5.378906 L 15.28125 -6.015625 L 16.066406 -6.300781 L 18.871094 -8.449219 L 20 -9.832031 L 20.957031 -11.289062 L 21.605469 -12.898438 L 21.933594 -14.710938 L 21.832031 -15.621094 L 21.945312 -16.476562 L 21.589844 -18.328125 L 20.964844 -20.355469 L 16.332031 -31.261719 L 15.925781 -31.996094 L 15.628906 -32.917969 L 15.273438 -33.53125 L 13.847656 -36.882812 L 13.625 -37.742188 L 12.742188 -38.367188 L 11.730469 -38.273438 L 9.222656 -37.109375 L 7.472656 -36.511719 L 6.796875 -35.746094 L 6.730469 -34.667969 L 13.574219 -18.785156 L 14.355469 -16.160156 L 14.371094 -15.453125 L 14.269531 -14.457031 L 13.789062 -13.679688 L 12.597656 -12.554688 L 10.171875 -11.523438 L 9.160156 -11.332031 L 8.300781 -11.441406 L 7.449219 -11.652344 L 6.6875 -12.09375 L 6.121094 -12.757812 L 4.882812 -15 L -0.523438 -28.058594 L -0.863281 -28.628906 L -1.332031 -29.957031 L -1.910156 -31.09375 L -2.773438 -31.777344 L -3.773438 -31.777344 L -4.542969 -31.453125 L -5.296875 -30.988281 L -7.105469 -30.410156 L -7.902344 -29.929688 L -8.613281 -29.246094 L -8.8125 -28.257812 L -8.386719 -27.480469 L -7.976562 -26.511719 L -7.78125 -25.832031 L -5.257812 -20.226562 L -5.035156 -19.367188 L -4.628906 -18.636719 L -1.984375 -12.082031 L -0.371094 -8.953125 L 0.738281 -7.46875 L 1.96875 -6.367188 L 3.515625 -5.308594 L 4.238281 -4.949219 L 5.070312 -4.679688 L 6.722656 -4.382812 L 7.683594 -4.363281 L 8.445312 -4.257812 L 10.273438 -4.222656 L 11.984375 -4.566406 L 12.792969 -4.910156 Z M 14.121094 -5.378906 "/></g></g></g><g fill="#000000" fill-opacity="1"><g transform="translate(147.767583, 45.940199)"><g><path d="M 15.015625 -2.792969 L 21.160156 -4.082031 L 21.988281 -4.644531 L 22.289062 -5.644531 L 21.4375 -9.992188 L 20.796875 -10.761719 L 19.816406 -10.972656 L 18.84375 -10.695312 L 18 -10.664062 L 15.792969 -10.28125 L 14.40625 -9.828125 L 13.527344 -9.746094 L 12.585938 -9.519531 L 11.742188 -9.488281 L 10.8125 -9.21875 L 9.824219 -9.472656 L 9.328125 -10.179688 L 8.800781 -12.894531 L 9.011719 -13.875 L 9.695312 -14.5 L 10.976562 -14.796875 L 12.382812 -14.933594 L 14 -15.339844 L 15.777344 -15.640625 L 16.621094 -15.894531 L 17.621094 -16.046875 L 18.414062 -16.558594 L 18.546875 -17.480469 L 17.921875 -21.382812 L 17.253906 -22.503906 L 16.15625 -22.871094 L 13.613281 -22.375 L 12.726562 -22.113281 L 10.890625 -21.890625 L 8.410156 -21.316406 L 7.429688 -21.527344 L 6.824219 -22.796875 L 6.5625 -24.132812 L 6.792969 -25.023438 L 7.671875 -25.554688 L 8.5 -25.671875 L 9.285156 -26.003906 L 15.460938 -27.117188 L 16.273438 -27.320312 L 17.074219 -28.015625 L 17.355469 -28.875 L 17.144531 -29.726562 L 17.019531 -30.597656 L 16.429688 -33.164062 L 15.882812 -33.90625 L 14.953125 -34.085938 L 14.046875 -33.90625 L 13.238281 -33.929688 L 9.757812 -33.207031 L 8.828125 -32.933594 L 7.949219 -32.851562 L 7.222656 -32.667969 L 6.347656 -32.585938 L 2.832031 -31.808594 L 1.945312 -31.769531 L 1.160156 -31.4375 L 0.367188 -31.375 L -0.480469 -31.121094 L -1.347656 -30.996094 L -2.1875 -30.472656 L -2.484375 -29.476562 L -2.078125 -27.855469 L -1.863281 -26.066406 L -1.550781 -25.144531 L -0.8125 -20.902344 L -0.507812 -20.023438 L -0.433594 -19.1875 L 0.214844 -15.648438 L 0.492188 -14.898438 L 1.8125 -7.910156 L 1.886719 -7.074219 L 2.183594 -6.238281 L 2.632812 -3.242188 L 2.902344 -2.308594 L 3.476562 -1.214844 L 4.875 -0.90625 L 7.988281 -1.46875 L 8.917969 -1.738281 L 9.703125 -1.847656 L 11.441406 -2.320312 L 12.292969 -2.308594 L 13.292969 -2.457031 L 14.140625 -2.710938 Z M 15.015625 -2.792969 "/></g></g></g><g fill="#000000" fill-opacity="1"><g transform="translate(175.746945, 40.872896)"><g><path d="M 3.328125 -1.59375 L 3.640625 -0.453125 L 4.476562 -0.0195312 L 5.355469 0.0664062 L 7.199219 -0.0742188 L 8.910156 0.0078125 L 10.578125 -0.0859375 L 11.414062 0.0429688 L 12.378906 -0.0507812 L 21.066406 -0.0429688 L 21.898438 -0.484375 L 22.378906 -1.847656 L 22.320312 -5.402344 L 21.917969 -6.71875 L 21.125 -7.242188 L 20.203125 -7.148438 L 19.371094 -6.96875 L 18.449219 -7.097656 L 16.648438 -7.046875 L 15.773438 -7.21875 L 14.980469 -7.085938 L 13.269531 -7.164062 L 12.347656 -7.074219 L 11.46875 -7.421875 L 11.113281 -8.296875 L 11.097656 -23.175781 L 11.003906 -24.230469 L 11.085938 -25.984375 L 10.945312 -28.488281 L 10.984375 -29.320312 L 10.542969 -30.285156 L 9.660156 -30.808594 L 7.949219 -30.800781 L 7.074219 -30.621094 L 5.316406 -30.789062 L 4.484375 -30.65625 L 3.5625 -30.300781 L 3.171875 -29.332031 L 3.195312 -23.1875 L 3.113281 -22.355469 L 3.203125 -21.476562 L 3.078125 -19.851562 L 3.125 -18.886719 L 3.21875 -18.054688 Z M 3.328125 -1.59375 "/></g></g></g><g fill="#000000" fill-opacity="1"><g transform="translate(202.714585, 41.070775)"><g><path d="M 3.5625 -0.957031 L 3.664062 0.21875 L 4.40625 0.800781 L 5.253906 1.042969 L 7.089844 1.242188 L 8.757812 1.636719 L 10.414062 1.847656 L 11.210938 2.125 L 12.179688 2.210938 L 20.722656 3.808594 L 21.621094 3.523438 L 22.339844 2.273438 L 22.929688 -1.234375 L 22.777344 -2.601562 L 22.09375 -3.257812 L 21.171875 -3.335938 L 20.320312 -3.3125 L 19.4375 -3.609375 L 17.65625 -3.886719 L 16.824219 -4.214844 L 16.023438 -4.226562 L 14.355469 -4.621094 L 13.433594 -4.699219 L 12.632812 -5.199219 L 12.445312 -6.128906 L 15.144531 -20.757812 L 15.246094 -21.8125 L 15.648438 -23.523438 L 15.964844 -26.007812 L 16.15625 -26.820312 L 15.898438 -27.847656 L 15.128906 -28.523438 L 13.445312 -28.828125 L 12.546875 -28.8125 L 10.851562 -29.300781 L 10.007812 -29.320312 L 9.039062 -29.140625 L 8.476562 -28.257812 L 7.378906 -22.214844 L 7.144531 -21.410156 L 7.074219 -20.53125 L 6.652344 -18.957031 L 6.523438 -17.996094 L 6.460938 -17.160156 Z M 3.5625 -0.957031 "/></g></g></g><g fill="#000000" fill-opacity="1"><g transform="translate(229.148663, 46.111718)"><g><path d="M 14.203125 5.621094 L 20.089844 7.796875 L 21.09375 7.757812 L 21.875 7.074219 L 23.472656 2.9375 L 23.335938 1.945312 L 22.617188 1.246094 L 21.644531 0.960938 L 20.914062 0.539062 L 18.839844 -0.308594 L 17.425781 -0.664062 L 16.640625 -1.0625 L 15.722656 -1.367188 L 14.992188 -1.792969 L 14.058594 -2.058594 L 13.359375 -2.796875 L 13.3125 -3.660156 L 14.308594 -6.242188 L 15.007812 -6.960938 L 15.921875 -7.125 L 17.164062 -6.691406 L 18.429688 -6.0625 L 20.015625 -5.546875 L 21.679688 -4.859375 L 22.53125 -4.625 L 23.457031 -4.21875 L 24.402344 -4.230469 L 25.003906 -4.9375 L 26.546875 -8.578125 L 26.582031 -9.882812 L 25.84375 -10.777344 L 23.429688 -11.710938 L 22.535156 -11.960938 L 20.863281 -12.746094 L 18.457031 -13.578125 L 17.738281 -14.28125 L 17.902344 -15.675781 L 18.390625 -16.945312 L 19.058594 -17.582031 L 20.085938 -17.5625 L 20.847656 -17.21875 L 21.691406 -17.085938 L 27.515625 -14.742188 L 28.308594 -14.484375 L 29.359375 -14.644531 L 30.050781 -15.222656 L 30.328125 -16.058594 L 30.683594 -16.863281 L 31.550781 -19.351562 L 31.480469 -20.269531 L 30.789062 -20.914062 L 29.929688 -21.246094 L 29.253906 -21.695312 L 25.921875 -22.933594 L 24.988281 -23.199219 L 24.203125 -23.59375 L 23.488281 -23.824219 L 22.703125 -24.222656 L 19.3125 -25.433594 L 18.542969 -25.871094 L 17.699219 -26.007812 L 16.996094 -26.375 L 16.144531 -26.609375 L 15.339844 -26.964844 L 14.355469 -26.96875 L 13.570312 -26.285156 L 13.054688 -24.695312 L 12.285156 -23.066406 L 12.058594 -22.117188 L 10.429688 -18.136719 L 10.21875 -17.226562 L 9.839844 -16.480469 L 8.5 -13.140625 L 8.339844 -12.355469 L 5.742188 -5.734375 L 5.359375 -4.988281 L 5.164062 -4.125 L 3.953125 -1.34375 L 3.6875 -0.414062 L 3.589844 0.820312 L 4.613281 1.824219 L 7.542969 3.003906 L 8.476562 3.269531 L 9.199219 3.59375 L 10.925781 4.121094 L 11.640625 4.582031 L 12.566406 4.988281 L 13.417969 5.222656 Z M 14.203125 5.621094 "/></g></g></g><g fill="#000000" fill-opacity="1"><g transform="translate(255.416334, 56.199534)"><g><path d="M 11.21875 7.546875 L 12.316406 8.269531 L 13.550781 8.871094 L 14.285156 9.355469 L 15.5625 9.722656 L 17.234375 10.457031 L 19.441406 10.859375 L 22.984375 10.828125 L 26.300781 9.699219 L 27.148438 9.207031 L 27.976562 8.910156 L 29.503906 7.867188 L 30.144531 7.292969 L 30.800781 6.621094 L 31.429688 6.140625 L 32.023438 5.480469 L 32.53125 4.710938 L 33.414062 3.609375 L 34.074219 2.523438 L 35.46875 -0.710938 L 35.910156 -2.417969 L 36.074219 -3.308594 L 36.109375 -6.070312 L 35.589844 -9.511719 L 34.542969 -11.992188 L 34.109375 -12.851562 L 33.472656 -13.480469 L 33.042969 -14.1875 L 32.394531 -14.875 L 30.449219 -16.628906 L 22.140625 -22.207031 L 21.410156 -22.53125 L 20.699219 -23.050781 L 19.675781 -23.253906 L 18.839844 -22.699219 L 5.308594 -2.234375 L 4.921875 -1.488281 L 3.691406 0.382812 L 3.308594 1.757812 L 3.800781 2.609375 L 4.582031 3.019531 L 9.007812 6.035156 L 9.8125 6.410156 Z M 15.066406 1.460938 L 14.417969 0.929688 L 13.839844 -0.0273438 L 14.007812 -0.917969 L 14.378906 -1.566406 L 15.40625 -3.042969 L 16.441406 -4.9375 L 17.796875 -6.675781 L 21.054688 -11.78125 L 21.539062 -12.355469 L 22.460938 -12.957031 L 23.800781 -12.441406 L 25.367188 -11.464844 L 26.355469 -10.652344 L 27.519531 -9.308594 L 27.964844 -8.546875 L 28.246094 -7.78125 L 28.460938 -6.90625 L 28.574219 -5.882812 L 28.53125 -5.019531 L 28.425781 -4.140625 L 26.886719 -0.527344 L 24.832031 1.796875 L 23.316406 2.742188 L 20.945312 3.386719 L 19.167969 3.375 L 17.886719 3.003906 L 16.191406 2.148438 Z M 15.066406 1.460938 "/></g></g></g><g fill="#000000" fill-opacity="1"><g transform="translate(70.94863, 318.759161)"><g/></g></g><g fill="#000000" fill-opacity="1"><g transform="translate(86.424333, 331.508651)"><g><path d="M 3.398438 0.585938 L 3.335938 1.523438 L 3.933594 2.402344 L 6.484375 4.117188 L 8.449219 5.113281 L 9.441406 5.257812 L 10.578125 4.40625 L 11.199219 3.140625 L 11.707031 2.472656 L 14.097656 -1.519531 L 14.890625 -2.0625 L 15.847656 -1.941406 L 16.714844 -1.511719 L 17.410156 -0.882812 L 18.25 -0.574219 L 18.953125 -0.0429688 L 19.765625 0.402344 L 20.46875 0.933594 L 22.046875 1.796875 L 23.0625 1.90625 L 24.148438 0.972656 L 26.148438 -2.382812 L 26.230469 -3.363281 L 25.628906 -4.140625 L 23.839844 -5.339844 L 21.761719 -6.402344 L 20.414062 -7.480469 L 19.570312 -7.949219 L 19.003906 -8.703125 L 19.070312 -9.742188 L 19.710938 -10.792969 L 20.222656 -11.457031 L 21.175781 -13.1875 L 22.007812 -13.710938 L 23.019531 -13.761719 L 24.21875 -13.027344 L 25.257812 -12.289062 L 25.953125 -11.914062 L 26.679688 -11.421875 L 27.511719 -11.015625 L 30.3125 -9.199219 L 31.292969 -9.117188 L 32.125 -9.636719 L 33.214844 -11.59375 L 34.160156 -12.96875 L 34.398438 -14.367188 L 34.011719 -15.167969 L 31.742188 -16.503906 L 30.988281 -17.121094 L 29.480469 -17.9375 L 28.851562 -18.425781 L 27.683594 -19.039062 L 26.957031 -19.53125 L 25.75 -20.167969 L 24.289062 -21.058594 L 23.660156 -21.546875 L 21.75 -22.714844 L 20.917969 -23.121094 L 19.894531 -23.796875 L 18.816406 -23.890625 L 18.179688 -23.351562 L 17.128906 -21.886719 L 16.554688 -20.695312 L 13.84375 -16.589844 L 13.527344 -15.910156 L 13.085938 -15.097656 L 12.597656 -14.472656 L 12.148438 -13.5625 L 11.660156 -12.933594 L 11.1875 -12.246094 L 10.828125 -11.488281 L 10.226562 -10.671875 Z M 3.398438 0.585938 "/></g></g></g><g fill="#000000" fill-opacity="1"><g transform="translate(114.542403, 347.627444)"><g><path d="M 13.617188 5.554688 L 15.28125 6.117188 L 16.175781 5.996094 L 16.890625 5.382812 L 18.484375 1.339844 L 18.300781 0.371094 L 17.578125 -0.433594 L 16.722656 -0.769531 L 15.871094 -1.484375 L 15.75 -2.617188 L 16.179688 -3.34375 L 17.90625 -7.851562 L 18.34375 -8.71875 L 19.339844 -11.722656 L 21.125 -15.78125 L 21.78125 -16.609375 L 22.824219 -16.621094 L 23.691406 -16.421875 L 24.675781 -16.414062 L 25.34375 -16.90625 L 26.976562 -20.929688 L 26.792969 -21.898438 L 26.234375 -22.640625 L 21.292969 -24.585938 L 20.589844 -24.957031 L 19.707031 -25.117188 L 16.359375 -26.433594 L 15.632812 -26.863281 L 14.695312 -27.234375 L 13.714844 -27.148438 L 12.921875 -26.328125 L 11.851562 -23.257812 L 11.464844 -22.515625 L 11.59375 -21.519531 L 12.316406 -20.71875 L 13.132812 -20.394531 L 13.714844 -19.597656 L 13.648438 -18.351562 L 8.828125 -5.765625 L 7.898438 -4.71875 L 4.882812 -4.964844 L 4.140625 -4.40625 L 2.539062 -0.699219 L 2.511719 0.566406 L 3.183594 1.253906 L 3.960938 1.5625 L 4.769531 1.785156 L 5.890625 2.414062 L 7.171875 2.871094 L 8.019531 3.113281 L 9.589844 3.917969 L 10.878906 4.238281 L 12.878906 5.027344 Z M 13.617188 5.554688 "/></g></g></g><g fill="#000000" fill-opacity="1"><g transform="translate(141.226113, 357.55427)"><g><path d="M 11.210938 2.363281 L 14.109375 2.863281 L 15.445312 2.6875 L 16.117188 1.570312 L 16.699219 -0.640625 L 16.902344 -2.300781 L 17.171875 -3.1875 L 17.480469 -4.917969 L 17.722656 -5.675781 L 17.785156 -6.648438 L 19.277344 -13.554688 L 19.332031 -14.484375 L 20.21875 -18.199219 L 20.824219 -19.421875 L 21.746094 -19.769531 L 23.441406 -19.515625 L 24.992188 -18.980469 L 25.921875 -18.925781 L 26.6875 -18.722656 L 27.511719 -19.050781 L 28.222656 -19.890625 L 29.09375 -23.96875 L 28.792969 -24.925781 L 28.089844 -25.648438 L 25.425781 -26.191406 L 24.625 -26.441406 L 23.695312 -26.496094 L 22.894531 -26.75 L 19.375 -27.285156 L 18.550781 -27.628906 L 17.742188 -27.839844 L 16.8125 -27.894531 L 15.882812 -28.171875 L 15.074219 -28.15625 L 12.5625 -28.800781 L 11.203125 -28.941406 L 8.226562 -29.726562 L 7.320312 -29.460938 L 6.605469 -28.578125 L 6.472656 -27.707031 L 5.953125 -25.574219 L 5.765625 -24.222656 L 5.996094 -23.371094 L 6.683594 -22.785156 L 7.5625 -22.695312 L 11.628906 -21.78125 L 12.359375 -21.183594 L 12.660156 -20.226562 L 12.292969 -18.867188 L 12.136719 -17.648438 L 11.898438 -16.707031 L 11.769531 -15.839844 L 11.4375 -14.652344 L 10.265625 -8.21875 L 10.007812 -7.375 L 9.257812 -3.898438 L 9.160156 -2.976562 L 8.609375 -0.492188 L 8.355469 0.308594 L 8.722656 1.367188 L 9.882812 2.050781 Z M 11.210938 2.363281 "/></g></g></g><g fill="#000000" fill-opacity="1"><g transform="translate(174.383973, 363.740888)"><g><path d="M 25.882812 -1.15625 L 27.078125 -0.472656 L 28.308594 -0.359375 L 29.269531 -0.683594 L 29.695312 -1.566406 L 29.527344 -17.585938 L 29.382812 -18.332031 L 29.316406 -22.675781 L 29.429688 -23.730469 L 29.203125 -29.828125 L 28.75 -30.699219 L 27.863281 -31.167969 L 22.421875 -31.039062 L 21.597656 -30.542969 L 21.128906 -29.613281 L 21.101562 -28.691406 L 21.242188 -27.992188 L 21.140625 -26.144531 L 21.242188 -25.183594 L 21.28125 -17.324219 L 21.027344 -16.574219 L 20.363281 -16.871094 L 17.199219 -19.9375 L 15.957031 -20.882812 L 7.171875 -29.480469 L 6.503906 -29.996094 L 5.488281 -30.507812 L 4.167969 -30.792969 L 3.164062 -30.339844 L 2.78125 -29.5 L 2.992188 -16.203125 L 2.960938 -15.453125 L 3.078125 -13.65625 L 2.957031 -12.910156 L 3.15625 -5.710938 L 3.082031 -4.878906 L 3.230469 -1.191406 L 3.636719 -0.363281 L 4.5625 -0.0703125 L 6.363281 -0.0117188 L 7.328125 -0.117188 L 9.042969 -0.0117188 L 9.964844 -0.0703125 L 10.835938 -0.523438 L 11.25 -1.890625 L 11.121094 -12.992188 L 11.195312 -13.871094 L 11.488281 -14.625 L 12.0625 -14.414062 L 12.644531 -13.675781 L 15.808594 -10.742188 L 16.390625 -10.09375 L 17.144531 -9.621094 L 24.050781 -2.96875 L 25.214844 -1.714844 Z M 25.882812 -1.15625 "/></g></g></g><g fill="#000000" fill-opacity="1"><g transform="translate(216.573014, 361.64263)"><g><path d="M 14.890625 -3.410156 L 20.976562 -4.949219 L 21.78125 -5.546875 L 22.035156 -6.554688 L 21.007812 -10.867188 L 20.335938 -11.609375 L 19.347656 -11.78125 L 18.386719 -11.460938 L 17.542969 -11.394531 L 15.355469 -10.921875 L 13.988281 -10.414062 L 13.113281 -10.296875 L 12.183594 -10.03125 L 11.34375 -9.964844 L 10.425781 -9.65625 L 9.425781 -9.871094 L 8.902344 -10.554688 L 8.261719 -13.246094 L 8.433594 -14.234375 L 9.089844 -14.886719 L 10.359375 -15.234375 L 11.757812 -15.433594 L 13.359375 -15.902344 L 15.121094 -16.277344 L 15.953125 -16.566406 L 16.945312 -16.757812 L 17.71875 -17.304688 L 17.8125 -18.226562 L 17.027344 -22.101562 L 16.316406 -23.195312 L 15.199219 -23.515625 L 12.679688 -22.917969 L 11.804688 -22.617188 L 9.980469 -22.320312 L 7.523438 -21.644531 L 6.535156 -21.816406 L 5.878906 -23.058594 L 5.566406 -24.378906 L 5.757812 -25.285156 L 6.613281 -25.847656 L 7.4375 -26 L 8.207031 -26.363281 L 14.332031 -27.730469 L 15.132812 -27.96875 L 15.90625 -28.691406 L 16.152344 -29.5625 L 15.90625 -30.40625 L 15.746094 -31.269531 L 15.050781 -33.8125 L 14.472656 -34.53125 L 13.539062 -34.671875 L 12.640625 -34.457031 L 11.832031 -34.445312 L 8.382812 -33.578125 L 7.464844 -33.269531 L 6.589844 -33.152344 L 5.875 -32.9375 L 5 -32.820312 L 1.519531 -31.898438 L 0.632812 -31.824219 L -0.136719 -31.460938 L -0.925781 -31.363281 L -1.757812 -31.074219 L -2.621094 -30.914062 L -3.4375 -30.359375 L -3.695312 -29.351562 L -3.222656 -27.746094 L -2.933594 -25.964844 L -2.582031 -25.058594 L -1.671875 -20.851562 L -1.328125 -19.988281 L -1.222656 -19.15625 L -0.429688 -15.644531 L -0.121094 -14.90625 L 1.484375 -7.976562 L 1.59375 -7.148438 L 1.921875 -6.324219 L 2.496094 -3.347656 L 2.804688 -2.425781 L 3.421875 -1.355469 L 4.835938 -1.105469 L 7.917969 -1.796875 L 8.839844 -2.105469 L 9.617188 -2.246094 L 11.335938 -2.789062 L 12.1875 -2.8125 L 13.179688 -3.003906 L 14.015625 -3.292969 Z M 14.890625 -3.410156 "/></g></g></g><g fill="#000000" fill-opacity="1"><g transform="translate(249.561537, 353.00335)"><g><path d="M 10.871094 -4.625 L 14.050781 -6.011719 L 14.808594 -6.460938 L 15.511719 -7.03125 L 16.253906 -7.519531 L 16.898438 -8.210938 L 17.578125 -8.621094 L 18.167969 -9.332031 L 20.113281 -12.222656 L 20.710938 -13.957031 L 20.851562 -14.699219 L 20.878906 -15.777344 L 20.785156 -16.605469 L 20.710938 -17.390625 L 20.019531 -19.492188 L 19.347656 -20.730469 L 17.675781 -22.757812 L 16.941406 -23.191406 L 15.351562 -23.902344 L 14.339844 -24.207031 L 13.554688 -24.226562 L 12.636719 -24.332031 L 9.085938 -23.839844 L 8.234375 -23.589844 L 7.421875 -23.257812 L 6.511719 -23.03125 L 5.359375 -22.492188 L 3.042969 -21.949219 L 1.238281 -21.976562 L 0.382812 -22.257812 L -0.332031 -23.375 L -0.632812 -24.542969 L -0.398438 -25.285156 L -0.00390625 -26 L 0.464844 -26.652344 L 1.109375 -27.144531 L 2.363281 -27.777344 L 3.710938 -28.210938 L 4.519531 -28.347656 L 5.457031 -28.203125 L 6.394531 -27.960938 L 7.359375 -27.445312 L 8.476562 -27.335938 L 10.273438 -28.363281 L 11.382812 -28.785156 L 12.179688 -29.15625 L 12.933594 -29.410156 L 13.429688 -30.320312 L 13.433594 -31.144531 L 12.921875 -31.824219 L 12.488281 -32.542969 L 10.414062 -34.09375 L 8.980469 -34.878906 L 5.503906 -35.488281 L 2.921875 -35.207031 L 1.222656 -34.800781 L -1.878906 -33.453125 L -2.640625 -32.808594 L -3.417969 -32.398438 L -4.082031 -31.945312 L -5.371094 -30.761719 L -6.351562 -29.335938 L -7.648438 -27.132812 L -8.171875 -24.617188 L -7.867188 -22.09375 L -7.082031 -20.089844 L -6.464844 -18.875 L -5.445312 -17.410156 L -4.160156 -16.316406 L -1.835938 -15.171875 L 1.554688 -14.960938 L 3.210938 -15.148438 L 9.789062 -17.34375 L 11.535156 -17.332031 L 12.277344 -17.097656 L 12.980469 -16.210938 L 13.125 -15.070312 L 12.882812 -14.230469 L 11.808594 -13.003906 L 10.613281 -12.351562 L 9.953125 -11.898438 L 7.832031 -11.152344 L 6.988281 -11.195312 L 6.105469 -11.316406 L 4.128906 -12.136719 L 3.183594 -12.085938 L 2.503906 -11.671875 L 1.691406 -11.441406 L -1.296875 -9.855469 L -1.863281 -9.203125 L -1.792969 -8.21875 L -1.304688 -7.476562 L -0.773438 -6.757812 L -0.203125 -6.152344 L 1.238281 -5.03125 L 2.039062 -4.773438 L 2.832031 -4.417969 L 4.632812 -4.191406 L 5.46875 -3.855469 L 6.390625 -3.847656 L 7.296875 -3.980469 L 9.109375 -4.144531 Z M 10.871094 -4.625 "/></g></g></g><g fill="#000000" fill-opacity="1"><g transform="translate(282.756895, 336.484621)"><g><path d="M 9.660156 -6.800781 L 12.480469 -8.820312 L 13.128906 -9.417969 L 13.695312 -10.125 L 14.316406 -10.757812 L 14.804688 -11.566406 L 15.382812 -12.113281 L 15.8125 -12.929688 L 17.109375 -16.164062 L 17.328125 -17.984375 L 17.308594 -18.738281 L 17.113281 -19.800781 L 16.847656 -20.589844 L 16.609375 -21.34375 L 15.496094 -23.253906 L 14.578125 -24.320312 L 12.519531 -25.957031 L 11.710938 -26.226562 L 10.007812 -26.589844 L 8.953125 -26.671875 L 8.179688 -26.53125 L 7.257812 -26.4375 L 3.890625 -25.214844 L 3.113281 -24.792969 L 2.386719 -24.296875 L 1.542969 -23.882812 L 0.527344 -23.117188 L -1.617188 -22.097656 L -3.390625 -21.75 L -4.285156 -21.84375 L -5.21875 -22.789062 L -5.757812 -23.867188 L -5.683594 -24.640625 L -5.449219 -25.421875 L -5.125 -26.160156 L -4.601562 -26.777344 L -3.507812 -27.65625 L -2.28125 -28.363281 L -1.519531 -28.664062 L -0.570312 -28.722656 L 0.394531 -28.679688 L 1.449219 -28.375 L 2.566406 -28.503906 L 4.105469 -29.886719 L 5.105469 -30.53125 L 5.804688 -31.058594 L 6.488281 -31.464844 L 6.78125 -32.457031 L 6.613281 -33.265625 L 5.96875 -33.824219 L 5.398438 -34.4375 L 3.042969 -35.519531 L 1.476562 -35.988281 L -2.050781 -35.851562 L -4.515625 -35.035156 L -6.09375 -34.285156 L -8.84375 -32.320312 L -9.453125 -31.527344 L -10.128906 -30.960938 L -10.679688 -30.382812 L -11.691406 -28.957031 L -12.355469 -27.355469 L -13.164062 -24.929688 L -13.144531 -22.359375 L -12.320312 -19.957031 L -11.128906 -18.160156 L -10.273438 -17.101562 L -8.972656 -15.886719 L -7.484375 -15.082031 L -4.972656 -14.449219 L -1.613281 -14.953125 L -0.0351562 -15.484375 L 5.941406 -19.007812 L 7.652344 -19.363281 L 8.425781 -19.289062 L 9.296875 -18.570312 L 9.675781 -17.484375 L 9.617188 -16.613281 L 8.824219 -15.191406 L 7.792969 -14.300781 L 7.238281 -13.71875 L 5.320312 -12.542969 L 4.488281 -12.410156 L 3.601562 -12.34375 L 1.492188 -12.734375 L 0.582031 -12.484375 L 0.00390625 -11.9375 L -0.742188 -11.542969 L -3.332031 -9.363281 L -3.75 -8.609375 L -3.476562 -7.660156 L -2.839844 -7.039062 L -2.171875 -6.445312 L -1.484375 -5.972656 L 0.160156 -5.179688 L 0.992188 -5.09375 L 1.84375 -4.914062 L 3.652344 -5.070312 L 4.539062 -4.914062 L 5.441406 -5.101562 L 6.300781 -5.417969 L 8.039062 -5.960938 Z M 9.660156 -6.800781 "/></g></g></g><g clip-path="url(#2e2cf0f611)"><g clip-path="url(#fb5e447364)"><g clip-path="url(#5b30e0b222)"><g clip-path="url(#fe9ce94e3f)"><path fill="#000000" d="M 206.308594 174.019531 C 208.695312 171.167969 211.746094 168.941406 215.164062 167.519531 L 227.65625 165.113281 C 233.082031 164.074219 237.9375 161.078125 241.332031 156.722656 L 274.515625 109.09375 C 275.417969 107.933594 275.246094 106.265625 274.160156 105.355469 C 273.078125 104.449219 271.46875 104.628906 270.566406 105.785156 L 239.5 146.78125 C 238.25 148.378906 236.0625 148.710938 234.628906 147.511719 C 233.195312 146.3125 233.082031 144.054688 234.355469 142.476562 L 266.214844 102.144531 C 267.144531 101.007812 267 99.359375 265.914062 98.453125 C 264.832031 97.542969 263.207031 97.710938 262.265625 98.835938 L 229.683594 138.566406 C 228.398438 140.128906 226.179688 140.4375 224.75 139.238281 C 223.316406 138.039062 223.230469 135.804688 224.542969 134.261719 L 257.929688 95.203125 C 258.859375 94.070312 258.738281 92.441406 257.652344 91.535156 C 256.570312 90.625 254.921875 90.773438 253.953125 91.875 L 219.84375 130.328125 C 218.515625 131.859375 216.273438 132.144531 214.839844 130.945312 C 213.410156 129.746094 213.347656 127.53125 214.703125 126.023438 L 249.601562 88.230469 C 250.582031 87.140625 250.476562 85.527344 249.394531 84.617188 C 248.308594 83.710938 246.632812 83.835938 245.652344 84.925781 L 204.59375 125.964844 C 200.90625 130.070312 198.832031 135.375 198.738281 140.898438 L 198.5625 153.621094 C 197.769531 157.261719 196.109375 160.632812 193.722656 163.484375 C 193.722656 163.484375 161.148438 208.207031 121.519531 244.519531 C 121.519531 244.519531 100.152344 261.523438 113.179688 272.433594 C 126.207031 283.339844 139.191406 259.316406 139.191406 259.316406 C 168.003906 213.949219 206.308594 174.019531 206.308594 174.019531 Z M 206.308594 174.019531 " fill-opacity="1" fill-rule="nonzero"/></g></g></g></g><g clip-path="url(#e9849a000c)"><g clip-path="url(#a055ed70d9)"><g clip-path="url(#1a33748137)"><path fill="#ff66c4" d="M 246.484375 281.644531 C 244.820312 280.253906 244.601562 277.78125 245.988281 276.121094 L 282.652344 232.292969 C 284.042969 230.628906 286.515625 230.410156 288.175781 231.800781 C 289.839844 233.191406 290.0625 235.664062 288.671875 237.324219 L 252.007812 281.15625 C 250.617188 282.816406 248.144531 283.035156 246.484375 281.644531 Z M 246.484375 281.644531 " fill-opacity="1" fill-rule="nonzero"/></g></g></g><g clip-path="url(#6c3372cb9d)"><g clip-path="url(#1304b6b201)"><g clip-path="url(#81d7ba6b7b)"><path fill="#ff66c4" d="M 238.679688 275.113281 C 237.015625 273.722656 236.796875 271.253906 238.183594 269.589844 L 274.847656 225.761719 C 276.238281 224.101562 278.710938 223.882812 280.371094 225.273438 C 282.035156 226.664062 282.257812 229.132812 280.867188 230.796875 L 244.203125 274.625 C 242.8125 276.289062 240.339844 276.503906 238.679688 275.113281 Z M 238.679688 275.113281 " fill-opacity="1" fill-rule="nonzero"/></g></g></g><g clip-path="url(#32088d0b8c)"><g clip-path="url(#9db6c0e9ed)"><g clip-path="url(#c656fe948b)"><path fill="#ff66c4" d="M 224.605469 276.078125 C 222.941406 274.6875 222.71875 272.214844 224.109375 270.554688 L 273.3125 211.738281 C 274.699219 210.074219 277.171875 209.859375 278.835938 211.25 C 280.496094 212.640625 280.71875 215.113281 279.332031 216.773438 L 230.128906 275.589844 C 228.738281 277.25 226.265625 277.46875 224.605469 276.078125 Z M 224.605469 276.078125 " fill-opacity="1" fill-rule="nonzero"/></g></g></g><g clip-path="url(#62d646afd1)"><g clip-path="url(#919d211e0c)"><g clip-path="url(#de168d9c27)"><path fill="#ff66c4" d="M 245.433594 251.179688 L 117.097656 143.820312 C 115.433594 142.429688 115.210938 139.957031 116.601562 138.296875 L 124.144531 129.28125 C 125.535156 127.617188 128.007812 127.402344 129.671875 128.789062 L 258.003906 236.152344 C 259.667969 237.542969 259.890625 240.011719 258.5 241.675781 L 250.957031 250.695312 C 249.566406 252.351562 247.09375 252.570312 245.433594 251.179688 Z M 125.132812 140.328125 L 247.449219 242.652344 L 249.964844 239.644531 L 127.648438 137.320312 Z M 125.132812 140.328125 " fill-opacity="1" fill-rule="nonzero"/></g></g></g><g clip-path="url(#d04c7661c3)"><g clip-path="url(#73edca982c)"><g clip-path="url(#2d4151caaf)"><path fill="#ff66c4" d="M 269.019531 276.027344 L 258.523438 267.246094 C 256.863281 265.859375 256.640625 263.386719 258.03125 261.722656 L 270.613281 246.683594 C 272.003906 245.023438 274.476562 244.804688 276.136719 246.195312 L 286.632812 254.976562 C 288.292969 256.367188 288.519531 258.839844 287.128906 260.5 L 274.546875 275.539062 C 273.15625 277.203125 270.683594 277.417969 269.019531 276.027344 Z M 266.5625 263.753906 L 271.042969 267.5 L 278.59375 258.46875 L 274.117188 254.722656 Z M 266.5625 263.753906 " fill-opacity="1" fill-rule="nonzero"/></g></g></g><g clip-path="url(#40f93b435e)"><g clip-path="url(#34db25e837)"><g clip-path="url(#0470dfb380)"><path fill="#ff66c4" d="M 86.925781 148.164062 C 85.261719 146.773438 85.039062 144.300781 86.429688 142.636719 L 123.09375 98.8125 C 124.484375 97.152344 126.953125 96.933594 128.617188 98.324219 C 130.28125 99.714844 130.503906 102.1875 129.113281 103.851562 L 92.449219 147.675781 C 91.058594 149.335938 88.585938 149.554688 86.925781 148.164062 Z M 86.925781 148.164062 " fill-opacity="1" fill-rule="nonzero"/></g></g></g><g clip-path="url(#da9e383501)"><g clip-path="url(#aa023f2124)"><g clip-path="url(#157fe9c3ca)"><path fill="#ff66c4" d="M 94.730469 154.691406 C 93.070312 153.300781 92.847656 150.828125 94.234375 149.167969 L 130.898438 105.34375 C 132.289062 103.683594 134.761719 103.464844 136.421875 104.855469 C 138.085938 106.246094 138.308594 108.71875 136.917969 110.378906 L 100.257812 154.203125 C 98.867188 155.867188 96.394531 156.082031 94.730469 154.691406 Z M 94.730469 154.691406 " fill-opacity="1" fill-rule="nonzero"/></g></g></g><g clip-path="url(#6f3c3ca1b8)"><g clip-path="url(#2e01505169)"><g clip-path="url(#bc688faea5)"><path fill="#ff66c4" d="M 96.269531 168.71875 C 94.605469 167.328125 94.382812 164.855469 95.773438 163.191406 L 144.976562 104.375 C 146.363281 102.714844 148.835938 102.496094 150.5 103.890625 C 152.164062 105.28125 152.386719 107.75 150.996094 109.414062 L 101.792969 168.226562 C 100.402344 169.890625 97.929688 170.109375 96.269531 168.71875 Z M 96.269531 168.71875 " fill-opacity="1" fill-rule="nonzero"/></g></g></g><g clip-path="url(#052df2d36b)"><g clip-path="url(#7bb69f0910)"><g clip-path="url(#030c5c9276)"><path fill="#ff66c4" d="M 98.964844 133.773438 L 88.46875 124.992188 C 86.808594 123.601562 86.585938 121.128906 87.976562 119.46875 L 100.558594 104.425781 C 101.949219 102.761719 104.421875 102.546875 106.085938 103.9375 L 116.578125 112.714844 C 118.242188 114.105469 118.464844 116.578125 117.074219 118.238281 L 104.488281 133.285156 C 103.097656 134.945312 100.625 135.164062 98.964844 133.773438 Z M 96.507812 121.496094 L 100.984375 125.242188 L 108.539062 116.210938 L 104.0625 112.464844 Z M 96.507812 121.496094 " fill-opacity="1" fill-rule="nonzero"/></g></g></g></svg>