<svg xmlns="http://www.w3.org/2000/svg" xmlns:xlink="http://www.w3.org/1999/xlink" width="500" zoomAndPan="magnify" viewBox="0 0 375 374.999991" height="500" preserveAspectRatio="xMidYMid meet" version="1.0"><defs><g/><clipPath id="3f909f6647"><path d="M 33 102 L 168 102 L 168 257 L 33 257 Z M 33 102 " clip-rule="nonzero"/></clipPath><clipPath id="c0b01e9e09"><path d="M 141.707031 98.625 L 171.484375 123.558594 L 52.027344 266.226562 L 22.25 241.296875 Z M 141.707031 98.625 " clip-rule="nonzero"/></clipPath><clipPath id="c867080b77"><path d="M 141.707031 98.625 L 171.484375 123.558594 L 52.027344 266.226562 L 22.25 241.296875 Z M 141.707031 98.625 " clip-rule="nonzero"/></clipPath><clipPath id="2b1b0e2f69"><path d="M 141.707031 98.625 L 171.484375 123.558594 L 52.027344 266.226562 L 22.25 241.296875 Z M 141.707031 98.625 " clip-rule="nonzero"/></clipPath><clipPath id="f003cb12f5"><path d="M 143 220 L 179 220 L 179 262 L 143 262 Z M 143 220 " clip-rule="nonzero"/></clipPath><clipPath id="32a9ab2725"><path d="M 43.636719 98.628906 L 193.804688 224.253906 L 150.199219 276.378906 L 0.03125 150.753906 Z M 43.636719 98.628906 " clip-rule="nonzero"/></clipPath><clipPath id="e4cecc0f5b"><path d="M 43.636719 98.628906 L 193.804688 224.253906 L 150.199219 276.378906 L 0.03125 150.753906 Z M 43.636719 98.628906 " clip-rule="nonzero"/></clipPath><clipPath id="b1188b02a5"><path d="M 136 215 L 173 215 L 173 257 L 136 257 Z M 136 215 " clip-rule="nonzero"/></clipPath><clipPath id="68d8b8e77f"><path d="M 43.636719 98.628906 L 193.804688 224.253906 L 150.199219 276.378906 L 0.03125 150.753906 Z M 43.636719 98.628906 " clip-rule="nonzero"/></clipPath><clipPath id="cfb4ce243c"><path d="M 43.636719 98.628906 L 193.804688 224.253906 L 150.199219 276.378906 L 0.03125 150.753906 Z M 43.636719 98.628906 " clip-rule="nonzero"/></clipPath><clipPath id="21e202c71a"><path d="M 125 203 L 172 203 L 172 258 L 125 258 Z M 125 203 " clip-rule="nonzero"/></clipPath><clipPath id="124943b028"><path d="M 43.636719 98.628906 L 193.804688 224.253906 L 150.199219 276.378906 L 0.03125 150.753906 Z M 43.636719 98.628906 " clip-rule="nonzero"/></clipPath><clipPath id="59c76288c6"><path d="M 43.636719 98.628906 L 193.804688 224.253906 L 150.199219 276.378906 L 0.03125 150.753906 Z M 43.636719 98.628906 " clip-rule="nonzero"/></clipPath><clipPath id="02fa77ffaa"><path d="M 39 137 L 155 137 L 155 238 L 39 238 Z M 39 137 " clip-rule="nonzero"/></clipPath><clipPath id="fda7006081"><path d="M 43.636719 98.628906 L 193.804688 224.253906 L 150.199219 276.378906 L 0.03125 150.753906 Z M 43.636719 98.628906 " clip-rule="nonzero"/></clipPath><clipPath id="81fca056ba"><path d="M 43.636719 98.628906 L 193.804688 224.253906 L 150.199219 276.378906 L 0.03125 150.753906 Z M 43.636719 98.628906 " clip-rule="nonzero"/></clipPath><clipPath id="3b3ce945ed"><path d="M 152 231 L 178 231 L 178 258 L 152 258 Z M 152 231 " clip-rule="nonzero"/></clipPath><clipPath id="d354c079cb"><path d="M 43.636719 98.628906 L 193.804688 224.253906 L 150.199219 276.378906 L 0.03125 150.753906 Z M 43.636719 98.628906 " clip-rule="nonzero"/></clipPath><clipPath id="c3dd3d55bf"><path d="M 43.636719 98.628906 L 193.804688 224.253906 L 150.199219 276.378906 L 0.03125 150.753906 Z M 43.636719 98.628906 " clip-rule="nonzero"/></clipPath><clipPath id="8369105504"><path d="M 14 113 L 51 113 L 51 155 L 14 155 Z M 14 113 " clip-rule="nonzero"/></clipPath><clipPath id="dcfd83fcf2"><path d="M 43.636719 98.628906 L 193.804688 224.253906 L 150.199219 276.378906 L 0.03125 150.753906 Z M 43.636719 98.628906 " clip-rule="nonzero"/></clipPath><clipPath id="7fbad5fdda"><path d="M 43.636719 98.628906 L 193.804688 224.253906 L 150.199219 276.378906 L 0.03125 150.753906 Z M 43.636719 98.628906 " clip-rule="nonzero"/></clipPath><clipPath id="bfad2e7bea"><path d="M 21 118 L 57 118 L 57 160 L 21 160 Z M 21 118 " clip-rule="nonzero"/></clipPath><clipPath id="2d97637268"><path d="M 43.636719 98.628906 L 193.804688 224.253906 L 150.199219 276.378906 L 0.03125 150.753906 Z M 43.636719 98.628906 " clip-rule="nonzero"/></clipPath><clipPath id="dca8326293"><path d="M 43.636719 98.628906 L 193.804688 224.253906 L 150.199219 276.378906 L 0.03125 150.753906 Z M 43.636719 98.628906 " clip-rule="nonzero"/></clipPath><clipPath id="8c67fab0cc"><path d="M 22 117 L 69 117 L 69 172 L 22 172 Z M 22 117 " clip-rule="nonzero"/></clipPath><clipPath id="05939db402"><path d="M 43.636719 98.628906 L 193.804688 224.253906 L 150.199219 276.378906 L 0.03125 150.753906 Z M 43.636719 98.628906 " clip-rule="nonzero"/></clipPath><clipPath id="cd55ff9ad1"><path d="M 43.636719 98.628906 L 193.804688 224.253906 L 150.199219 276.378906 L 0.03125 150.753906 Z M 43.636719 98.628906 " clip-rule="nonzero"/></clipPath><clipPath id="360da8f064"><path d="M 16 117 L 41 117 L 41 144 L 16 144 Z M 16 117 " clip-rule="nonzero"/></clipPath><clipPath id="14bafc222a"><path d="M 43.636719 98.628906 L 193.804688 224.253906 L 150.199219 276.378906 L 0.03125 150.753906 Z M 43.636719 98.628906 " clip-rule="nonzero"/></clipPath><clipPath id="8308e2c8c0"><path d="M 43.636719 98.628906 L 193.804688 224.253906 L 150.199219 276.378906 L 0.03125 150.753906 Z M 43.636719 98.628906 " clip-rule="nonzero"/></clipPath></defs><g fill="#000000" fill-opacity="1"><g transform="translate(196.157672, 174.795241)"><g><path d="M 2.574219 -1.023438 L 2.929688 -0.351562 L 3.707031 0 L 6.175781 0.105469 L 7.941406 -0.0351562 L 8.679688 -0.351562 L 9.105469 -1.410156 L 9 -2.539062 L 9.070312 -3.210938 L 9.035156 -6.953125 L 9.351562 -7.65625 L 10.058594 -7.976562 L 10.832031 -8.046875 L 11.574219 -7.90625 L 12.28125 -8.046875 L 12.984375 -7.976562 L 13.726562 -8.011719 L 14.433594 -7.941406 L 15.878906 -8.011719 L 16.621094 -8.363281 L 16.972656 -9.457031 L 16.9375 -12.597656 L 16.585938 -13.304688 L 15.84375 -13.585938 L 14.113281 -13.65625 L 12.246094 -13.515625 L 10.867188 -13.691406 L 10.09375 -13.65625 L 9.386719 -13.9375 L 9 -14.679688 L 9 -15.667969 L 9.070312 -16.339844 L 9 -17.925781 L 9.351562 -18.632812 L 10.023438 -19.089844 L 11.152344 -19.089844 L 12.175781 -19.019531 L 12.808594 -19.054688 L 13.515625 -19.019531 L 14.257812 -19.089844 L 16.9375 -19.019531 L 17.644531 -19.371094 L 17.996094 -20.078125 L 17.925781 -21.878906 L 17.996094 -23.21875 L 17.574219 -24.277344 L 16.972656 -24.667969 L 14.855469 -24.628906 L 14.078125 -24.738281 L 12.703125 -24.667969 L 12.070312 -24.738281 L 11.007812 -24.667969 L 10.304688 -24.703125 L 9.210938 -24.628906 L 7.832031 -24.628906 L 7.199219 -24.703125 L 5.398438 -24.703125 L 4.65625 -24.628906 L 3.667969 -24.667969 L 2.894531 -24.277344 L 2.683594 -23.644531 L 2.574219 -22.195312 L 2.683594 -21.136719 L 2.539062 -17.183594 L 2.609375 -16.585938 L 2.648438 -15.84375 L 2.574219 -15.207031 L 2.648438 -14.398438 L 2.574219 -13.761719 L 2.539062 -13.089844 L 2.609375 -12.421875 L 2.539062 -11.609375 Z M 2.574219 -1.023438 "/></g></g></g><g fill="#000000" fill-opacity="1"><g transform="translate(220.187891, 174.795241)"><g><path d="M 12.140625 0.457031 L 13.199219 0.351562 L 13.867188 0.386719 L 16.621094 -0.316406 L 17.890625 -0.988281 L 19.054688 -1.765625 L 20.042969 -2.753906 L 20.855469 -3.988281 L 21.066406 -4.691406 L 21.417969 -5.292969 L 21.738281 -6.773438 L 21.914062 -8.46875 L 21.914062 -17.996094 L 21.84375 -18.667969 L 21.914062 -19.445312 L 21.84375 -20.007812 L 21.84375 -22.9375 L 21.949219 -23.644531 L 21.488281 -24.382812 L 20.714844 -24.628906 L 18.492188 -24.558594 L 17.007812 -24.667969 L 16.269531 -24.3125 L 15.878906 -23.535156 L 15.949219 -9.632812 L 15.703125 -7.445312 L 15.492188 -6.917969 L 15.101562 -6.210938 L 14.503906 -5.789062 L 13.269531 -5.328125 L 11.152344 -5.328125 L 10.339844 -5.503906 L 9.738281 -5.859375 L 9.175781 -6.28125 L 8.75 -6.847656 L 8.539062 -7.515625 L 8.328125 -9.5625 L 8.433594 -20.925781 L 8.363281 -21.453125 L 8.433594 -22.585938 L 8.363281 -23.605469 L 7.941406 -24.382812 L 7.199219 -24.703125 L 6.527344 -24.703125 L 5.824219 -24.59375 L 4.304688 -24.738281 L 3.5625 -24.628906 L 2.824219 -24.347656 L 2.363281 -23.679688 L 2.433594 -22.972656 L 2.433594 -22.125 L 2.363281 -21.5625 L 2.46875 -16.621094 L 2.363281 -15.914062 L 2.433594 -15.246094 L 2.328125 -9.5625 L 2.539062 -6.738281 L 2.894531 -5.292969 L 3.457031 -4.09375 L 4.269531 -2.824219 L 4.691406 -2.328125 L 5.222656 -1.871094 L 6.351562 -1.128906 L 7.058594 -0.8125 L 7.585938 -0.492188 L 8.929688 0.105469 L 10.304688 0.386719 L 11.007812 0.386719 Z M 12.140625 0.457031 "/></g></g></g><g fill="#000000" fill-opacity="1"><g transform="translate(249.334512, 174.795241)"><g><path d="M 12.28125 0.105469 L 17.328125 0.0351562 L 18.066406 -0.28125 L 18.457031 -1.023438 L 18.457031 -4.585938 L 18.066406 -5.292969 L 17.328125 -5.609375 L 16.515625 -5.539062 L 15.84375 -5.644531 L 14.042969 -5.679688 L 12.878906 -5.539062 L 12.175781 -5.609375 L 11.398438 -5.574219 L 10.726562 -5.679688 L 9.949219 -5.609375 L 9.210938 -5.964844 L 8.929688 -6.597656 L 8.929688 -8.820312 L 9.246094 -9.5625 L 9.878906 -9.949219 L 10.9375 -9.988281 L 12.070312 -9.878906 L 13.410156 -9.949219 L 14.855469 -9.914062 L 15.5625 -9.988281 L 16.375 -9.949219 L 17.078125 -10.234375 L 17.328125 -10.9375 L 17.433594 -14.113281 L 17.078125 -15.101562 L 16.269531 -15.5625 L 14.1875 -15.5625 L 13.445312 -15.492188 L 11.960938 -15.597656 L 9.914062 -15.527344 L 9.175781 -15.84375 L 8.890625 -16.9375 L 8.890625 -18.03125 L 9.210938 -18.703125 L 9.988281 -18.984375 L 10.65625 -18.949219 L 11.328125 -19.089844 L 16.375 -19.019531 L 17.042969 -19.054688 L 17.785156 -19.480469 L 18.136719 -20.113281 L 18.101562 -20.820312 L 18.136719 -21.527344 L 18.066406 -23.644531 L 17.75 -24.3125 L 17.042969 -24.59375 L 16.304688 -24.59375 L 15.667969 -24.738281 L 12.808594 -24.703125 L 12.03125 -24.628906 L 11.328125 -24.703125 L 10.726562 -24.667969 L 10.023438 -24.738281 L 7.128906 -24.667969 L 6.421875 -24.773438 L 5.75 -24.628906 L 5.117188 -24.703125 L 4.410156 -24.628906 L 3.707031 -24.667969 L 2.964844 -24.382812 L 2.574219 -23.644531 L 2.648438 -22.300781 L 2.539062 -20.855469 L 2.648438 -20.078125 L 2.574219 -16.621094 L 2.683594 -15.878906 L 2.609375 -15.207031 L 2.574219 -12.316406 L 2.683594 -11.679688 L 2.648438 -5.964844 L 2.574219 -5.292969 L 2.683594 -4.585938 L 2.574219 -2.152344 L 2.648438 -1.375 L 2.929688 -0.421875 L 3.988281 0.0351562 L 6.527344 0.0703125 L 7.304688 0 L 7.941406 0.0351562 L 9.386719 -0.0703125 L 10.058594 0.0703125 L 10.867188 0.105469 L 11.574219 0.0351562 Z M 12.28125 0.105469 "/></g></g></g><g fill="#000000" fill-opacity="1"><g transform="translate(274.352726, 174.795241)"><g><path d="M 2.683594 -1.269531 L 2.929688 -0.351562 L 3.597656 0 L 4.304688 0.0703125 L 5.789062 -0.0351562 L 7.164062 0.0351562 L 8.503906 -0.0351562 L 9.175781 0.0703125 L 9.949219 0 L 16.9375 0.0351562 L 17.609375 -0.316406 L 17.996094 -1.410156 L 17.960938 -4.269531 L 17.644531 -5.328125 L 17.007812 -5.75 L 16.269531 -5.679688 L 15.597656 -5.539062 L 14.855469 -5.644531 L 13.410156 -5.609375 L 12.703125 -5.75 L 12.070312 -5.644531 L 10.691406 -5.714844 L 9.949219 -5.644531 L 9.246094 -5.929688 L 8.964844 -6.632812 L 9 -18.597656 L 8.929688 -19.445312 L 9 -20.855469 L 8.890625 -22.867188 L 8.929688 -23.535156 L 8.574219 -24.3125 L 7.867188 -24.738281 L 6.492188 -24.738281 L 5.789062 -24.59375 L 4.375 -24.738281 L 3.707031 -24.628906 L 2.964844 -24.347656 L 2.648438 -23.570312 L 2.648438 -18.632812 L 2.574219 -17.960938 L 2.648438 -17.253906 L 2.539062 -15.949219 L 2.574219 -15.171875 L 2.648438 -14.503906 Z M 2.683594 -1.269531 "/></g></g></g><g fill="#000000" fill-opacity="1"><g transform="translate(298.135945, 174.795241)"><g><path d="M 2.683594 -1.269531 L 2.929688 -0.351562 L 3.597656 0 L 4.304688 0.0703125 L 5.789062 -0.0351562 L 7.164062 0.0351562 L 8.503906 -0.0351562 L 9.175781 0.0703125 L 9.949219 0 L 16.9375 0.0351562 L 17.609375 -0.316406 L 17.996094 -1.410156 L 17.960938 -4.269531 L 17.644531 -5.328125 L 17.007812 -5.75 L 16.269531 -5.679688 L 15.597656 -5.539062 L 14.855469 -5.644531 L 13.410156 -5.609375 L 12.703125 -5.75 L 12.070312 -5.644531 L 10.691406 -5.714844 L 9.949219 -5.644531 L 9.246094 -5.929688 L 8.964844 -6.632812 L 9 -18.597656 L 8.929688 -19.445312 L 9 -20.855469 L 8.890625 -22.867188 L 8.929688 -23.535156 L 8.574219 -24.3125 L 7.867188 -24.738281 L 6.492188 -24.738281 L 5.789062 -24.59375 L 4.375 -24.738281 L 3.707031 -24.628906 L 2.964844 -24.347656 L 2.648438 -23.570312 L 2.648438 -18.632812 L 2.574219 -17.960938 L 2.648438 -17.253906 L 2.539062 -15.949219 L 2.574219 -15.171875 L 2.648438 -14.503906 Z M 2.683594 -1.269531 "/></g></g></g><g fill="#000000" fill-opacity="1"><g transform="translate(321.919165, 174.795241)"><g><path d="M 12.28125 0.105469 L 17.328125 0.0351562 L 18.066406 -0.28125 L 18.457031 -1.023438 L 18.457031 -4.585938 L 18.066406 -5.292969 L 17.328125 -5.609375 L 16.515625 -5.539062 L 15.84375 -5.644531 L 14.042969 -5.679688 L 12.878906 -5.539062 L 12.175781 -5.609375 L 11.398438 -5.574219 L 10.726562 -5.679688 L 9.949219 -5.609375 L 9.210938 -5.964844 L 8.929688 -6.597656 L 8.929688 -8.820312 L 9.246094 -9.5625 L 9.878906 -9.949219 L 10.9375 -9.988281 L 12.070312 -9.878906 L 13.410156 -9.949219 L 14.855469 -9.914062 L 15.5625 -9.988281 L 16.375 -9.949219 L 17.078125 -10.234375 L 17.328125 -10.9375 L 17.433594 -14.113281 L 17.078125 -15.101562 L 16.269531 -15.5625 L 14.1875 -15.5625 L 13.445312 -15.492188 L 11.960938 -15.597656 L 9.914062 -15.527344 L 9.175781 -15.84375 L 8.890625 -16.9375 L 8.890625 -18.03125 L 9.210938 -18.703125 L 9.988281 -18.984375 L 10.65625 -18.949219 L 11.328125 -19.089844 L 16.375 -19.019531 L 17.042969 -19.054688 L 17.785156 -19.480469 L 18.136719 -20.113281 L 18.101562 -20.820312 L 18.136719 -21.527344 L 18.066406 -23.644531 L 17.75 -24.3125 L 17.042969 -24.59375 L 16.304688 -24.59375 L 15.667969 -24.738281 L 12.808594 -24.703125 L 12.03125 -24.628906 L 11.328125 -24.703125 L 10.726562 -24.667969 L 10.023438 -24.738281 L 7.128906 -24.667969 L 6.421875 -24.773438 L 5.75 -24.628906 L 5.117188 -24.703125 L 4.410156 -24.628906 L 3.707031 -24.667969 L 2.964844 -24.382812 L 2.574219 -23.644531 L 2.648438 -22.300781 L 2.539062 -20.855469 L 2.648438 -20.078125 L 2.574219 -16.621094 L 2.683594 -15.878906 L 2.609375 -15.207031 L 2.574219 -12.316406 L 2.683594 -11.679688 L 2.648438 -5.964844 L 2.574219 -5.292969 L 2.683594 -4.585938 L 2.574219 -2.152344 L 2.648438 -1.375 L 2.929688 -0.421875 L 3.988281 0.0351562 L 6.527344 0.0703125 L 7.304688 0 L 7.941406 0.0351562 L 9.386719 -0.0703125 L 10.058594 0.0703125 L 10.867188 0.105469 L 11.574219 0.0351562 Z M 12.28125 0.105469 "/></g></g></g><g fill="#000000" fill-opacity="1"><g transform="translate(346.937371, 174.795241)"><g><path d="M 10.867188 0.105469 L 11.925781 0.105469 L 13.019531 -0.0351562 L 13.726562 -0.0351562 L 14.75 -0.351562 L 16.195312 -0.601562 L 17.855469 -1.304688 L 20.21875 -2.894531 L 21.949219 -5.117188 L 22.300781 -5.824219 L 22.726562 -6.386719 L 23.289062 -7.761719 L 23.464844 -8.433594 L 23.605469 -9.175781 L 23.820312 -9.773438 L 23.925781 -10.480469 L 23.925781 -11.222656 L 24.03125 -12.351562 L 23.996094 -13.375 L 23.5 -16.160156 L 23.042969 -17.503906 L 22.761719 -18.171875 L 21.5625 -20.042969 L 19.691406 -22.125 L 17.890625 -23.324219 L 17.21875 -23.714844 L 16.515625 -23.855469 L 15.914062 -24.136719 L 15.171875 -24.3125 L 13.089844 -24.628906 L 5.046875 -24.703125 L 4.410156 -24.59375 L 3.707031 -24.628906 L 2.929688 -24.3125 L 2.609375 -23.570312 L 2.574219 -3.847656 L 2.648438 -3.175781 L 2.648438 -1.375 L 3 -0.28125 L 3.707031 0.0703125 L 4.410156 0 L 8.714844 0.0703125 L 9.421875 -0.0351562 Z M 10.761719 -5.679688 L 10.09375 -5.75 L 9.28125 -6.140625 L 9 -6.808594 L 8.964844 -7.410156 L 9 -8.855469 L 8.855469 -10.585938 L 9 -12.351562 L 8.929688 -17.21875 L 9 -17.820312 L 9.351562 -18.632812 L 10.480469 -18.878906 L 11.960938 -18.914062 L 12.984375 -18.808594 L 14.363281 -18.421875 L 14.996094 -18.101562 L 15.527344 -17.714844 L 16.054688 -17.21875 L 16.585938 -16.585938 L 16.9375 -15.984375 L 17.253906 -15.351562 L 17.820312 -12.246094 L 17.46875 -9.773438 L 16.867188 -8.46875 L 15.5625 -6.988281 L 14.363281 -6.210938 L 13.339844 -5.894531 L 11.820312 -5.714844 Z M 10.761719 -5.679688 "/></g></g></g><g clip-path="url(#3f909f6647)"><g clip-path="url(#c0b01e9e09)"><g clip-path="url(#c867080b77)"><g clip-path="url(#2b1b0e2f69)"><path fill="#000000" d="M 112 174.632812 C 113.917969 172.339844 116.371094 170.546875 119.121094 169.40625 L 129.164062 167.46875 C 133.527344 166.636719 137.429688 164.226562 140.160156 160.726562 L 166.839844 122.433594 C 167.5625 121.5 167.425781 120.160156 166.550781 119.429688 C 165.679688 118.699219 164.386719 118.84375 163.664062 119.773438 L 138.683594 152.734375 C 137.679688 154.019531 135.921875 154.285156 134.769531 153.320312 C 133.617188 152.355469 133.527344 150.539062 134.550781 149.273438 L 160.164062 116.84375 C 160.910156 115.933594 160.792969 114.605469 159.921875 113.875 C 159.050781 113.148438 157.746094 113.28125 156.988281 114.1875 L 130.792969 146.128906 C 129.757812 147.386719 127.976562 147.632812 126.824219 146.667969 C 125.675781 145.703125 125.605469 143.90625 126.660156 142.667969 L 153.503906 111.265625 C 154.25 110.351562 154.152344 109.046875 153.28125 108.316406 C 152.410156 107.585938 151.082031 107.703125 150.304688 108.589844 L 122.882812 139.503906 C 121.816406 140.734375 120.011719 140.964844 118.859375 140 C 117.710938 139.035156 117.660156 137.253906 118.75 136.042969 L 146.808594 105.660156 C 147.597656 104.785156 147.511719 103.484375 146.640625 102.753906 C 145.769531 102.023438 144.421875 102.125 143.632812 103 L 110.625 135.996094 C 107.65625 139.296875 105.992188 143.5625 105.914062 148.003906 L 105.773438 158.230469 C 105.136719 161.160156 103.800781 163.867188 101.882812 166.160156 C 101.882812 166.160156 75.691406 202.117188 43.832031 231.3125 C 43.832031 231.3125 26.65625 244.984375 37.128906 253.753906 C 47.601562 262.519531 58.039062 243.207031 58.039062 243.207031 C 81.203125 206.730469 112 174.632812 112 174.632812 Z M 112 174.632812 " fill-opacity="1" fill-rule="nonzero"/></g></g></g></g><g clip-path="url(#f003cb12f5)"><g clip-path="url(#32a9ab2725)"><g clip-path="url(#e4cecc0f5b)"><path fill="#ff66c4" d="M 144.300781 261.15625 C 142.964844 260.039062 142.785156 258.054688 143.902344 256.71875 L 173.378906 221.480469 C 174.496094 220.144531 176.484375 219.96875 177.820312 221.085938 C 179.15625 222.203125 179.335938 224.191406 178.21875 225.527344 L 148.742188 260.765625 C 147.625 262.101562 145.636719 262.273438 144.300781 261.15625 Z M 144.300781 261.15625 " fill-opacity="1" fill-rule="nonzero"/></g></g></g><g clip-path="url(#b1188b02a5)"><g clip-path="url(#68d8b8e77f)"><g clip-path="url(#cfb4ce243c)"><path fill="#ff66c4" d="M 138.023438 255.90625 C 136.6875 254.789062 136.511719 252.804688 137.628906 251.46875 L 167.105469 216.230469 C 168.222656 214.894531 170.207031 214.71875 171.546875 215.835938 C 172.882812 216.953125 173.0625 218.941406 171.941406 220.277344 L 142.46875 255.515625 C 141.347656 256.851562 139.359375 257.027344 138.023438 255.90625 Z M 138.023438 255.90625 " fill-opacity="1" fill-rule="nonzero"/></g></g></g><g clip-path="url(#21e202c71a)"><g clip-path="url(#124943b028)"><g clip-path="url(#59c76288c6)"><path fill="#ff66c4" d="M 126.710938 256.683594 C 125.371094 255.566406 125.195312 253.578125 126.3125 252.242188 L 165.867188 204.957031 C 166.984375 203.621094 168.972656 203.445312 170.308594 204.5625 C 171.644531 205.679688 171.824219 207.667969 170.707031 209.003906 L 131.152344 256.289062 C 130.035156 257.625 128.046875 257.800781 126.710938 256.683594 Z M 126.710938 256.683594 " fill-opacity="1" fill-rule="nonzero"/></g></g></g><g clip-path="url(#02fa77ffaa)"><g clip-path="url(#fda7006081)"><g clip-path="url(#81fca056ba)"><path fill="#ff66c4" d="M 143.453125 236.664062 L 40.277344 150.351562 C 38.941406 149.234375 38.761719 147.246094 39.878906 145.914062 L 45.941406 138.660156 C 47.0625 137.324219 49.050781 137.152344 50.386719 138.269531 L 153.5625 224.582031 C 154.898438 225.699219 155.078125 227.6875 153.960938 229.023438 L 147.894531 236.277344 C 146.78125 237.609375 144.792969 237.785156 143.453125 236.664062 Z M 46.738281 147.542969 L 145.078125 229.808594 L 147.101562 227.390625 L 48.761719 145.125 Z M 46.738281 147.542969 " fill-opacity="1" fill-rule="nonzero"/></g></g></g><g clip-path="url(#3b3ce945ed)"><g clip-path="url(#d354c079cb)"><g clip-path="url(#c3dd3d55bf)"><path fill="#ff66c4" d="M 162.417969 256.644531 L 153.980469 249.585938 C 152.644531 248.46875 152.464844 246.480469 153.582031 245.144531 L 163.699219 233.050781 C 164.816406 231.714844 166.804688 231.539062 168.140625 232.65625 L 176.578125 239.714844 C 177.914062 240.835938 178.09375 242.824219 176.976562 244.160156 L 166.859375 256.25 C 165.742188 257.585938 163.753906 257.761719 162.417969 256.644531 Z M 160.445312 246.773438 L 164.042969 249.785156 L 170.117188 242.527344 L 166.515625 239.515625 Z M 160.445312 246.773438 " fill-opacity="1" fill-rule="nonzero"/></g></g></g><g clip-path="url(#8369105504)"><g clip-path="url(#dcfd83fcf2)"><g clip-path="url(#7fbad5fdda)"><path fill="#ff66c4" d="M 16.019531 153.84375 C 14.683594 152.726562 14.503906 150.738281 15.621094 149.402344 L 45.097656 114.167969 C 46.214844 112.832031 48.203125 112.65625 49.539062 113.777344 C 50.875 114.894531 51.054688 116.882812 49.9375 118.214844 L 20.460938 153.449219 C 19.34375 154.785156 17.355469 154.960938 16.019531 153.84375 Z M 16.019531 153.84375 " fill-opacity="1" fill-rule="nonzero"/></g></g></g><g clip-path="url(#bfad2e7bea)"><g clip-path="url(#2d97637268)"><g clip-path="url(#dca8326293)"><path fill="#ff66c4" d="M 22.296875 159.09375 C 20.960938 157.976562 20.78125 155.988281 21.898438 154.652344 L 51.371094 119.417969 C 52.488281 118.082031 54.476562 117.90625 55.816406 119.023438 C 57.152344 120.144531 57.328125 122.132812 56.210938 123.464844 L 26.738281 158.699219 C 25.621094 160.035156 23.632812 160.210938 22.296875 159.09375 Z M 22.296875 159.09375 " fill-opacity="1" fill-rule="nonzero"/></g></g></g><g clip-path="url(#8c67fab0cc)"><g clip-path="url(#05939db402)"><g clip-path="url(#cd55ff9ad1)"><path fill="#ff66c4" d="M 23.53125 170.367188 C 22.195312 169.25 22.015625 167.261719 23.132812 165.925781 L 62.691406 118.640625 C 63.808594 117.304688 65.796875 117.128906 67.132812 118.25 C 68.46875 119.367188 68.648438 121.351562 67.53125 122.6875 L 27.972656 169.976562 C 26.855469 171.3125 24.867188 171.488281 23.53125 170.367188 Z M 23.53125 170.367188 " fill-opacity="1" fill-rule="nonzero"/></g></g></g><g clip-path="url(#360da8f064)"><g clip-path="url(#14bafc222a)"><g clip-path="url(#8308e2c8c0)"><path fill="#ff66c4" d="M 25.699219 142.273438 L 17.261719 135.214844 C 15.925781 134.097656 15.746094 132.109375 16.863281 130.773438 L 26.980469 118.679688 C 28.097656 117.34375 30.085938 117.167969 31.421875 118.285156 L 39.859375 125.34375 C 41.199219 126.460938 41.375 128.449219 40.257812 129.785156 L 30.140625 141.878906 C 29.023438 143.21875 27.035156 143.390625 25.699219 142.273438 Z M 23.722656 132.40625 L 27.324219 135.414062 L 33.398438 128.152344 L 29.800781 125.144531 Z M 23.722656 132.40625 " fill-opacity="1" fill-rule="nonzero"/></g></g></g><g fill="#101010" fill-opacity="1"><g transform="translate(196.56298, 219.967856)"><g><path d="M 2.574219 -1.023438 L 2.929688 -0.351562 L 3.707031 0 L 6.175781 0.105469 L 7.941406 -0.0351562 L 8.679688 -0.351562 L 9.105469 -1.410156 L 9 -2.539062 L 9.070312 -3.210938 L 9.035156 -6.953125 L 9.351562 -7.65625 L 10.058594 -7.976562 L 10.832031 -8.046875 L 11.574219 -7.90625 L 12.28125 -8.046875 L 12.984375 -7.976562 L 13.726562 -8.011719 L 14.433594 -7.941406 L 15.878906 -8.011719 L 16.621094 -8.363281 L 16.972656 -9.457031 L 16.9375 -12.597656 L 16.585938 -13.304688 L 15.84375 -13.585938 L 14.113281 -13.65625 L 12.246094 -13.515625 L 10.867188 -13.691406 L 10.09375 -13.65625 L 9.386719 -13.9375 L 9 -14.679688 L 9 -15.667969 L 9.070312 -16.339844 L 9 -17.925781 L 9.351562 -18.632812 L 10.023438 -19.089844 L 11.152344 -19.089844 L 12.175781 -19.019531 L 12.808594 -19.054688 L 13.515625 -19.019531 L 14.257812 -19.089844 L 16.9375 -19.019531 L 17.644531 -19.371094 L 17.996094 -20.078125 L 17.925781 -21.878906 L 17.996094 -23.21875 L 17.574219 -24.277344 L 16.972656 -24.667969 L 14.855469 -24.628906 L 14.078125 -24.738281 L 12.703125 -24.667969 L 12.070312 -24.738281 L 11.007812 -24.667969 L 10.304688 -24.703125 L 9.210938 -24.628906 L 7.832031 -24.628906 L 7.199219 -24.703125 L 5.398438 -24.703125 L 4.65625 -24.628906 L 3.667969 -24.667969 L 2.894531 -24.277344 L 2.683594 -23.644531 L 2.574219 -22.195312 L 2.683594 -21.136719 L 2.539062 -17.183594 L 2.609375 -16.585938 L 2.648438 -15.84375 L 2.574219 -15.207031 L 2.648438 -14.398438 L 2.574219 -13.761719 L 2.539062 -13.089844 L 2.609375 -12.421875 L 2.539062 -11.609375 Z M 2.574219 -1.023438 "/></g></g></g><g fill="#101010" fill-opacity="1"><g transform="translate(220.593198, 219.967856)"><g><path d="M 11.820312 0.140625 L 13.234375 0.0703125 L 13.867188 -0.28125 L 14.222656 -0.953125 L 14.222656 -4.445312 L 13.796875 -5.117188 L 13.019531 -5.503906 L 12.28125 -5.503906 L 11.433594 -5.789062 L 11.007812 -6.597656 L 11.117188 -7.269531 L 11.082031 -11.152344 L 11.152344 -11.925781 L 11.007812 -14.46875 L 11.152344 -18.03125 L 11.398438 -18.84375 L 12.175781 -19.160156 L 12.878906 -19.265625 L 13.621094 -19.550781 L 13.972656 -20.113281 L 14.007812 -23.605469 L 13.585938 -24.277344 L 12.949219 -24.667969 L 8.679688 -24.667969 L 8.046875 -24.738281 L 7.339844 -24.59375 L 4.445312 -24.59375 L 3.777344 -24.703125 L 2.964844 -24.703125 L 2.257812 -24.347656 L 1.90625 -23.5 L 2.011719 -20.890625 L 1.941406 -20.21875 L 2.328125 -19.515625 L 3.105469 -19.125 L 3.8125 -19.125 L 4.480469 -18.703125 L 4.800781 -17.75 L 4.90625 -6.917969 L 4.515625 -5.859375 L 2.1875 -5.152344 L 1.800781 -4.515625 L 1.695312 -1.269531 L 2.046875 -0.316406 L 2.753906 0 L 3.421875 0 L 4.09375 -0.0703125 L 5.117188 0.0703125 L 6.210938 0.0351562 L 6.917969 -0.0351562 L 8.328125 0.105469 L 9.386719 -0.0351562 L 11.117188 -0.0351562 Z M 11.820312 0.140625 "/></g></g></g><g fill="#101010" fill-opacity="1"><g transform="translate(241.412432, 219.967856)"><g><path d="M 9.210938 0.0703125 L 11.574219 0 L 12.597656 -0.351562 L 12.949219 -1.339844 L 13.054688 -3.175781 L 12.949219 -4.515625 L 13.019531 -5.257812 L 12.984375 -6.667969 L 13.054688 -7.304688 L 12.949219 -8.082031 L 13.019531 -13.761719 L 12.914062 -14.503906 L 13.019531 -17.574219 L 13.304688 -18.632812 L 13.972656 -19.054688 L 15.351562 -19.125 L 16.65625 -18.949219 L 17.398438 -19.054688 L 18.03125 -19.019531 L 18.632812 -19.40625 L 19.054688 -20.183594 L 19.089844 -23.535156 L 18.703125 -24.242188 L 18.03125 -24.703125 L 15.84375 -24.703125 L 15.171875 -24.773438 L 14.433594 -24.667969 L 13.761719 -24.738281 L 10.902344 -24.59375 L 10.199219 -24.738281 L 9.527344 -24.773438 L 8.785156 -24.667969 L 8.011719 -24.738281 L 7.375 -24.59375 L 5.292969 -24.703125 L 4.199219 -24.59375 L 1.730469 -24.738281 L 1.058594 -24.382812 L 0.636719 -23.570312 L 0.671875 -22.867188 L 0.601562 -21.101562 L 0.671875 -20.007812 L 0.988281 -19.371094 L 1.625 -19.019531 L 2.328125 -19.089844 L 5.679688 -19.019531 L 6.351562 -18.667969 L 6.738281 -17.960938 L 6.667969 -16.832031 L 6.738281 -15.84375 L 6.703125 -15.066406 L 6.738281 -14.363281 L 6.667969 -13.375 L 6.773438 -8.117188 L 6.703125 -7.410156 L 6.667969 -4.550781 L 6.738281 -3.8125 L 6.703125 -1.765625 L 6.632812 -1.09375 L 7.09375 -0.316406 L 8.117188 0.0351562 Z M 9.210938 0.0703125 "/></g></g></g><g fill="#101010" fill-opacity="1"><g transform="translate(265.936658, 219.967856)"><g><path d="M 20.820312 -0.601562 L 21.773438 -0.0351562 L 22.761719 0.0703125 L 23.535156 -0.175781 L 23.890625 -0.882812 L 23.960938 -13.761719 L 23.855469 -14.363281 L 23.855469 -17.855469 L 23.960938 -18.703125 L 23.855469 -23.605469 L 23.5 -24.3125 L 22.796875 -24.703125 L 18.421875 -24.667969 L 17.75 -24.277344 L 17.363281 -23.535156 L 17.328125 -22.796875 L 17.433594 -22.230469 L 17.328125 -20.75 L 17.398438 -19.972656 L 17.328125 -13.65625 L 17.113281 -13.054688 L 16.585938 -13.304688 L 14.078125 -15.808594 L 13.089844 -16.585938 L 6.140625 -23.605469 L 5.609375 -24.03125 L 4.800781 -24.453125 L 3.742188 -24.703125 L 2.929688 -24.347656 L 2.609375 -23.679688 L 2.609375 -12.984375 L 2.574219 -12.386719 L 2.648438 -10.9375 L 2.539062 -10.339844 L 2.609375 -4.550781 L 2.539062 -3.882812 L 2.609375 -0.917969 L 2.929688 -0.246094 L 3.667969 0 L 5.117188 0.0703125 L 5.894531 0 L 7.269531 0.105469 L 8.011719 0.0703125 L 8.714844 -0.28125 L 9.070312 -1.375 L 9.105469 -10.304688 L 9.175781 -11.007812 L 9.421875 -11.609375 L 9.878906 -11.433594 L 10.339844 -10.832031 L 12.84375 -8.433594 L 13.304688 -7.90625 L 13.902344 -7.515625 L 19.371094 -2.082031 L 20.289062 -1.058594 Z M 20.820312 -0.601562 "/></g></g></g><g fill="#101010" fill-opacity="1"><g transform="translate(297.341551, 219.967856)"><g><path d="M 12.28125 0.105469 L 17.328125 0.0351562 L 18.066406 -0.28125 L 18.457031 -1.023438 L 18.457031 -4.585938 L 18.066406 -5.292969 L 17.328125 -5.609375 L 16.515625 -5.539062 L 15.84375 -5.644531 L 14.042969 -5.679688 L 12.878906 -5.539062 L 12.175781 -5.609375 L 11.398438 -5.574219 L 10.726562 -5.679688 L 9.949219 -5.609375 L 9.210938 -5.964844 L 8.929688 -6.597656 L 8.929688 -8.820312 L 9.246094 -9.5625 L 9.878906 -9.949219 L 10.9375 -9.988281 L 12.070312 -9.878906 L 13.410156 -9.949219 L 14.855469 -9.914062 L 15.5625 -9.988281 L 16.375 -9.949219 L 17.078125 -10.234375 L 17.328125 -10.9375 L 17.433594 -14.113281 L 17.078125 -15.101562 L 16.269531 -15.5625 L 14.1875 -15.5625 L 13.445312 -15.492188 L 11.960938 -15.597656 L 9.914062 -15.527344 L 9.175781 -15.84375 L 8.890625 -16.9375 L 8.890625 -18.03125 L 9.210938 -18.703125 L 9.988281 -18.984375 L 10.65625 -18.949219 L 11.328125 -19.089844 L 16.375 -19.019531 L 17.042969 -19.054688 L 17.785156 -19.480469 L 18.136719 -20.113281 L 18.101562 -20.820312 L 18.136719 -21.527344 L 18.066406 -23.644531 L 17.75 -24.3125 L 17.042969 -24.59375 L 16.304688 -24.59375 L 15.667969 -24.738281 L 12.808594 -24.703125 L 12.03125 -24.628906 L 11.328125 -24.703125 L 10.726562 -24.667969 L 10.023438 -24.738281 L 7.128906 -24.667969 L 6.421875 -24.773438 L 5.75 -24.628906 L 5.117188 -24.703125 L 4.410156 -24.628906 L 3.707031 -24.667969 L 2.964844 -24.382812 L 2.574219 -23.644531 L 2.648438 -22.300781 L 2.539062 -20.855469 L 2.648438 -20.078125 L 2.574219 -16.621094 L 2.683594 -15.878906 L 2.609375 -15.207031 L 2.574219 -12.316406 L 2.683594 -11.679688 L 2.648438 -5.964844 L 2.574219 -5.292969 L 2.683594 -4.585938 L 2.574219 -2.152344 L 2.648438 -1.375 L 2.929688 -0.421875 L 3.988281 0.0351562 L 6.527344 0.0703125 L 7.304688 0 L 7.941406 0.0351562 L 9.386719 -0.0703125 L 10.058594 0.0703125 L 10.867188 0.105469 L 11.574219 0.0351562 Z M 12.28125 0.105469 "/></g></g></g><g fill="#101010" fill-opacity="1"><g transform="translate(322.359757, 219.967856)"><g><path d="M 9.492188 0.316406 L 12.28125 0.386719 L 12.984375 0.316406 L 13.691406 0.140625 L 14.398438 0.0351562 L 15.101562 -0.246094 L 15.738281 -0.316406 L 16.410156 -0.636719 L 18.808594 -2.082031 L 19.832031 -3.140625 L 20.183594 -3.632812 L 20.574219 -4.410156 L 20.785156 -5.046875 L 20.996094 -5.644531 L 21.207031 -7.410156 L 21.136719 -8.539062 L 20.609375 -10.585938 L 20.21875 -11.152344 L 19.300781 -12.210938 L 18.667969 -12.773438 L 18.101562 -13.054688 L 17.46875 -13.445312 L 14.714844 -14.292969 L 14.007812 -14.398438 L 13.304688 -14.433594 L 12.5625 -14.574219 L 11.539062 -14.574219 L 9.667969 -14.960938 L 8.363281 -15.597656 L 7.832031 -16.089844 L 7.691406 -17.148438 L 7.867188 -18.101562 L 8.292969 -18.5625 L 8.820312 -18.949219 L 9.386719 -19.265625 L 10.023438 -19.40625 L 11.152344 -19.445312 L 12.28125 -19.300781 L 12.914062 -19.125 L 13.550781 -18.703125 L 14.148438 -18.207031 L 14.679688 -17.503906 L 15.457031 -17.042969 L 17.113281 -17.183594 L 18.066406 -17.113281 L 18.773438 -17.113281 L 19.40625 -17.042969 L 20.078125 -17.539062 L 20.359375 -18.136719 L 20.21875 -18.808594 L 20.148438 -19.480469 L 19.160156 -21.3125 L 18.386719 -22.371094 L 16.054688 -23.996094 L 14.078125 -24.667969 L 12.703125 -24.949219 L 9.988281 -25.019531 L 9.210938 -24.808594 L 8.503906 -24.773438 L 7.867188 -24.667969 L 6.527344 -24.242188 L 5.328125 -23.535156 L 3.632812 -22.371094 L 2.398438 -20.714844 L 1.765625 -18.773438 L 1.660156 -17.042969 L 1.695312 -15.949219 L 1.941406 -14.539062 L 2.503906 -13.304688 L 3.8125 -11.679688 L 6.210938 -10.375 L 7.480469 -9.949219 L 13.019531 -9.316406 L 14.292969 -8.714844 L 14.75 -8.292969 L 14.960938 -7.410156 L 14.679688 -6.527344 L 14.222656 -6 L 13.019531 -5.46875 L 11.925781 -5.398438 L 11.292969 -5.292969 L 9.492188 -5.46875 L 8.890625 -5.789062 L 8.292969 -6.175781 L 7.128906 -7.445312 L 6.421875 -7.726562 L 5.789062 -7.65625 L 5.117188 -7.761719 L 2.398438 -7.621094 L 1.765625 -7.339844 L 1.480469 -6.597656 L 1.589844 -5.894531 L 1.730469 -5.1875 L 1.941406 -4.550781 L 2.609375 -3.246094 L 3.105469 -2.789062 L 3.5625 -2.257812 L 4.800781 -1.480469 L 5.292969 -0.953125 L 5.964844 -0.636719 L 6.667969 -0.421875 L 8.046875 0.0703125 Z M 9.492188 0.316406 "/></g></g></g><g fill="#101010" fill-opacity="1"><g transform="translate(349.671537, 219.967856)"><g><path d="M 9.492188 0.316406 L 12.28125 0.386719 L 12.984375 0.316406 L 13.691406 0.140625 L 14.398438 0.0351562 L 15.101562 -0.246094 L 15.738281 -0.316406 L 16.410156 -0.636719 L 18.808594 -2.082031 L 19.832031 -3.140625 L 20.183594 -3.632812 L 20.574219 -4.410156 L 20.785156 -5.046875 L 20.996094 -5.644531 L 21.207031 -7.410156 L 21.136719 -8.539062 L 20.609375 -10.585938 L 20.21875 -11.152344 L 19.300781 -12.210938 L 18.667969 -12.773438 L 18.101562 -13.054688 L 17.46875 -13.445312 L 14.714844 -14.292969 L 14.007812 -14.398438 L 13.304688 -14.433594 L 12.5625 -14.574219 L 11.539062 -14.574219 L 9.667969 -14.960938 L 8.363281 -15.597656 L 7.832031 -16.089844 L 7.691406 -17.148438 L 7.867188 -18.101562 L 8.292969 -18.5625 L 8.820312 -18.949219 L 9.386719 -19.265625 L 10.023438 -19.40625 L 11.152344 -19.445312 L 12.28125 -19.300781 L 12.914062 -19.125 L 13.550781 -18.703125 L 14.148438 -18.207031 L 14.679688 -17.503906 L 15.457031 -17.042969 L 17.113281 -17.183594 L 18.066406 -17.113281 L 18.773438 -17.113281 L 19.40625 -17.042969 L 20.078125 -17.539062 L 20.359375 -18.136719 L 20.21875 -18.808594 L 20.148438 -19.480469 L 19.160156 -21.3125 L 18.386719 -22.371094 L 16.054688 -23.996094 L 14.078125 -24.667969 L 12.703125 -24.949219 L 9.988281 -25.019531 L 9.210938 -24.808594 L 8.503906 -24.773438 L 7.867188 -24.667969 L 6.527344 -24.242188 L 5.328125 -23.535156 L 3.632812 -22.371094 L 2.398438 -20.714844 L 1.765625 -18.773438 L 1.660156 -17.042969 L 1.695312 -15.949219 L 1.941406 -14.539062 L 2.503906 -13.304688 L 3.8125 -11.679688 L 6.210938 -10.375 L 7.480469 -9.949219 L 13.019531 -9.316406 L 14.292969 -8.714844 L 14.75 -8.292969 L 14.960938 -7.410156 L 14.679688 -6.527344 L 14.222656 -6 L 13.019531 -5.46875 L 11.925781 -5.398438 L 11.292969 -5.292969 L 9.492188 -5.46875 L 8.890625 -5.789062 L 8.292969 -6.175781 L 7.128906 -7.445312 L 6.421875 -7.726562 L 5.789062 -7.65625 L 5.117188 -7.761719 L 2.398438 -7.621094 L 1.765625 -7.339844 L 1.480469 -6.597656 L 1.589844 -5.894531 L 1.730469 -5.1875 L 1.941406 -4.550781 L 2.609375 -3.246094 L 3.105469 -2.789062 L 3.5625 -2.257812 L 4.800781 -1.480469 L 5.292969 -0.953125 L 5.964844 -0.636719 L 6.667969 -0.421875 L 8.046875 0.0703125 Z M 9.492188 0.316406 "/></g></g></g></svg>