<svg xmlns="http://www.w3.org/2000/svg" xmlns:xlink="http://www.w3.org/1999/xlink" width="500" zoomAndPan="magnify" viewBox="0 0 375 374.999991" height="500" preserveAspectRatio="xMidYMid meet" version="1.0"><defs><clipPath id="46320dcee6"><path d="M 65 22 L 324 22 L 324 321 L 65 321 Z M 65 22 " clip-rule="nonzero"/></clipPath><clipPath id="f0d1671cf5"><path d="M 274.265625 15.492188 L 331.890625 63.746094 L 100.691406 339.867188 L 43.066406 291.617188 Z M 274.265625 15.492188 " clip-rule="nonzero"/></clipPath><clipPath id="aa92a01489"><path d="M 274.265625 15.492188 L 331.890625 63.746094 L 100.691406 339.867188 L 43.066406 291.617188 Z M 274.265625 15.492188 " clip-rule="nonzero"/></clipPath><clipPath id="6bb65e67b2"><path d="M 274.265625 15.492188 L 331.890625 63.746094 L 100.691406 339.867188 L 43.066406 291.617188 Z M 274.265625 15.492188 " clip-rule="nonzero"/></clipPath><clipPath id="b151bf2299"><path d="M 277 251 L 347 251 L 347 332 L 277 332 Z M 277 251 " clip-rule="nonzero"/></clipPath><clipPath id="68ff519540"><path d="M 84.457031 15.496094 L 375.09375 258.632812 L 290.699219 359.515625 L 0.0625 116.378906 Z M 84.457031 15.496094 " clip-rule="nonzero"/></clipPath><clipPath id="2ac030e79d"><path d="M 84.457031 15.496094 L 375.09375 258.632812 L 290.699219 359.515625 L 0.0625 116.378906 Z M 84.457031 15.496094 " clip-rule="nonzero"/></clipPath><clipPath id="fa9ce31587"><path d="M 264 240 L 335 240 L 335 322 L 264 322 Z M 264 240 " clip-rule="nonzero"/></clipPath><clipPath id="8998b56c6a"><path d="M 84.457031 15.496094 L 375.09375 258.632812 L 290.699219 359.515625 L 0.0625 116.378906 Z M 84.457031 15.496094 " clip-rule="nonzero"/></clipPath><clipPath id="d60fbb7550"><path d="M 84.457031 15.496094 L 375.09375 258.632812 L 290.699219 359.515625 L 0.0625 116.378906 Z M 84.457031 15.496094 " clip-rule="nonzero"/></clipPath><clipPath id="2cd702bd8a"><path d="M 243 219 L 332 219 L 332 323 L 243 323 Z M 243 219 " clip-rule="nonzero"/></clipPath><clipPath id="e021146d07"><path d="M 84.457031 15.496094 L 375.09375 258.632812 L 290.699219 359.515625 L 0.0625 116.378906 Z M 84.457031 15.496094 " clip-rule="nonzero"/></clipPath><clipPath id="532936b7b5"><path d="M 84.457031 15.496094 L 375.09375 258.632812 L 290.699219 359.515625 L 0.0625 116.378906 Z M 84.457031 15.496094 " clip-rule="nonzero"/></clipPath><clipPath id="4838d6ba85"><path d="M 75 90 L 300 90 L 300 285 L 75 285 Z M 75 90 " clip-rule="nonzero"/></clipPath><clipPath id="0710b55611"><path d="M 84.457031 15.496094 L 375.09375 258.632812 L 290.699219 359.515625 L 0.0625 116.378906 Z M 84.457031 15.496094 " clip-rule="nonzero"/></clipPath><clipPath id="2b02d539c0"><path d="M 84.457031 15.496094 L 375.09375 258.632812 L 290.699219 359.515625 L 0.0625 116.378906 Z M 84.457031 15.496094 " clip-rule="nonzero"/></clipPath><clipPath id="75a02c5189"><path d="M 295 273 L 344 273 L 344 323 L 295 323 Z M 295 273 " clip-rule="nonzero"/></clipPath><clipPath id="39bc9bbc08"><path d="M 84.457031 15.496094 L 375.09375 258.632812 L 290.699219 359.515625 L 0.0625 116.378906 Z M 84.457031 15.496094 " clip-rule="nonzero"/></clipPath><clipPath id="b746a0525c"><path d="M 84.457031 15.496094 L 375.09375 258.632812 L 290.699219 359.515625 L 0.0625 116.378906 Z M 84.457031 15.496094 " clip-rule="nonzero"/></clipPath><clipPath id="b623d6c2e5"><path d="M 28 43 L 99 43 L 99 124 L 28 124 Z M 28 43 " clip-rule="nonzero"/></clipPath><clipPath id="ed917053c1"><path d="M 84.457031 15.496094 L 375.09375 258.632812 L 290.699219 359.515625 L 0.0625 116.378906 Z M 84.457031 15.496094 " clip-rule="nonzero"/></clipPath><clipPath id="8c9cf8e2a8"><path d="M 84.457031 15.496094 L 375.09375 258.632812 L 290.699219 359.515625 L 0.0625 116.378906 Z M 84.457031 15.496094 " clip-rule="nonzero"/></clipPath><clipPath id="cb3025634d"><path d="M 40 53 L 111 53 L 111 134 L 40 134 Z M 40 53 " clip-rule="nonzero"/></clipPath><clipPath id="d9ee769f42"><path d="M 84.457031 15.496094 L 375.09375 258.632812 L 290.699219 359.515625 L 0.0625 116.378906 Z M 84.457031 15.496094 " clip-rule="nonzero"/></clipPath><clipPath id="d486971f5b"><path d="M 84.457031 15.496094 L 375.09375 258.632812 L 290.699219 359.515625 L 0.0625 116.378906 Z M 84.457031 15.496094 " clip-rule="nonzero"/></clipPath><clipPath id="87601116db"><path d="M 43 52 L 133 52 L 133 156 L 43 156 Z M 43 52 " clip-rule="nonzero"/></clipPath><clipPath id="f429b87f38"><path d="M 84.457031 15.496094 L 375.09375 258.632812 L 290.699219 359.515625 L 0.0625 116.378906 Z M 84.457031 15.496094 " clip-rule="nonzero"/></clipPath><clipPath id="cf5db66584"><path d="M 84.457031 15.496094 L 375.09375 258.632812 L 290.699219 359.515625 L 0.0625 116.378906 Z M 84.457031 15.496094 " clip-rule="nonzero"/></clipPath><clipPath id="6c98af5461"><path d="M 31 52 L 80 52 L 80 102 L 31 102 Z M 31 52 " clip-rule="nonzero"/></clipPath><clipPath id="7e1f3cf1ee"><path d="M 84.457031 15.496094 L 375.09375 258.632812 L 290.699219 359.515625 L 0.0625 116.378906 Z M 84.457031 15.496094 " clip-rule="nonzero"/></clipPath><clipPath id="feefb10e5b"><path d="M 84.457031 15.496094 L 375.09375 258.632812 L 290.699219 359.515625 L 0.0625 116.378906 Z M 84.457031 15.496094 " clip-rule="nonzero"/></clipPath></defs><g clip-path="url(#46320dcee6)"><g clip-path="url(#f0d1671cf5)"><g clip-path="url(#aa92a01489)"><g clip-path="url(#6bb65e67b2)"><path fill="#000000" d="M 216.761719 162.597656 C 220.480469 158.160156 225.226562 154.691406 230.546875 152.480469 L 249.984375 148.734375 C 258.425781 147.117188 265.980469 142.457031 271.265625 135.679688 L 322.898438 61.570312 C 324.300781 59.765625 324.035156 57.167969 322.347656 55.753906 C 320.660156 54.339844 318.15625 54.621094 316.753906 56.421875 L 268.410156 120.214844 C 266.46875 122.699219 263.0625 123.214844 260.832031 121.347656 C 258.605469 119.480469 258.429688 115.964844 260.410156 113.515625 L 309.984375 50.753906 C 311.429688 48.988281 311.203125 46.421875 309.515625 45.007812 C 307.828125 43.597656 305.304688 43.859375 303.839844 45.609375 L 253.140625 107.425781 C 251.136719 109.863281 247.6875 110.339844 245.460938 108.476562 C 243.230469 106.609375 243.097656 103.128906 245.140625 100.730469 L 297.089844 39.957031 C 298.535156 38.1875 298.347656 35.660156 296.660156 34.246094 C 294.972656 32.835938 292.410156 33.0625 290.902344 34.777344 L 237.828125 94.605469 C 235.761719 96.988281 232.273438 97.433594 230.042969 95.566406 C 227.816406 93.699219 227.722656 90.257812 229.828125 87.910156 L 284.132812 29.109375 C 285.660156 27.410156 285.496094 24.898438 283.808594 23.484375 C 282.121094 22.070312 279.515625 22.265625 277.984375 23.960938 L 214.101562 87.816406 C 208.359375 94.210938 205.136719 102.460938 204.988281 111.058594 L 204.714844 130.851562 C 203.480469 136.519531 200.898438 141.761719 197.179688 146.199219 C 197.179688 146.199219 146.496094 215.792969 84.835938 272.292969 C 84.835938 272.292969 51.589844 298.753906 71.859375 315.726562 C 92.128906 332.695312 112.332031 295.316406 112.332031 295.316406 C 157.160156 224.722656 216.761719 162.597656 216.761719 162.597656 Z M 216.761719 162.597656 " fill-opacity="1" fill-rule="nonzero"/></g></g></g></g><g clip-path="url(#b151bf2299)"><g clip-path="url(#68ff519540)"><g clip-path="url(#2ac030e79d)"><path fill="#ff66c4" d="M 279.277344 330.058594 C 276.691406 327.894531 276.347656 324.046875 278.511719 321.460938 L 335.558594 253.265625 C 337.722656 250.679688 341.570312 250.339844 344.152344 252.503906 C 346.738281 254.664062 347.085938 258.511719 344.921875 261.097656 L 287.875 329.296875 C 285.710938 331.882812 281.863281 332.21875 279.277344 330.058594 Z M 279.277344 330.058594 " fill-opacity="1" fill-rule="nonzero"/></g></g></g><g clip-path="url(#fa9ce31587)"><g clip-path="url(#8998b56c6a)"><g clip-path="url(#d60fbb7550)"><path fill="#ff66c4" d="M 267.132812 319.898438 C 264.546875 317.734375 264.203125 313.886719 266.367188 311.304688 L 323.414062 243.105469 C 325.578125 240.519531 329.421875 240.179688 332.007812 242.34375 C 334.59375 244.507812 334.941406 248.351562 332.777344 250.9375 L 275.730469 319.136719 C 273.566406 321.722656 269.71875 322.0625 267.132812 319.898438 Z M 267.132812 319.898438 " fill-opacity="1" fill-rule="nonzero"/></g></g></g><g clip-path="url(#2cd702bd8a)"><g clip-path="url(#e021146d07)"><g clip-path="url(#532936b7b5)"><path fill="#ff66c4" d="M 245.234375 321.398438 C 242.648438 319.234375 242.300781 315.386719 244.464844 312.800781 L 321.023438 221.28125 C 323.1875 218.699219 327.03125 218.359375 329.617188 220.523438 C 332.203125 222.6875 332.550781 226.53125 330.390625 229.117188 L 253.832031 320.636719 C 251.667969 323.222656 247.820312 323.5625 245.234375 321.398438 Z M 245.234375 321.398438 " fill-opacity="1" fill-rule="nonzero"/></g></g></g><g clip-path="url(#4838d6ba85)"><g clip-path="url(#0710b55611)"><g clip-path="url(#2b02d539c0)"><path fill="#ff66c4" d="M 277.644531 282.65625 L 77.953125 115.601562 C 75.367188 113.4375 75.019531 109.59375 77.179688 107.011719 L 88.917969 92.976562 C 91.082031 90.390625 94.929688 90.054688 97.515625 92.21875 L 297.207031 259.269531 C 299.792969 261.433594 300.140625 265.28125 297.976562 267.867188 L 286.238281 281.902344 C 284.078125 284.480469 280.230469 284.820312 277.644531 282.65625 Z M 90.457031 110.167969 L 280.78125 269.386719 L 284.699219 264.707031 L 94.371094 105.488281 Z M 90.457031 110.167969 " fill-opacity="1" fill-rule="nonzero"/></g></g></g><g clip-path="url(#75a02c5189)"><g clip-path="url(#39bc9bbc08)"><g clip-path="url(#b746a0525c)"><path fill="#ff66c4" d="M 314.34375 321.320312 L 298.015625 307.65625 C 295.429688 305.496094 295.082031 301.648438 297.246094 299.0625 L 316.824219 275.660156 C 318.988281 273.074219 322.835938 272.738281 325.417969 274.898438 L 341.75 288.558594 C 344.335938 290.726562 344.683594 294.570312 342.523438 297.15625 L 322.941406 320.558594 C 320.777344 323.144531 316.933594 323.484375 314.34375 321.320312 Z M 310.523438 302.21875 L 317.492188 308.046875 L 329.242188 294 L 322.277344 288.171875 Z M 310.523438 302.21875 " fill-opacity="1" fill-rule="nonzero"/></g></g></g><g clip-path="url(#b623d6c2e5)"><g clip-path="url(#ed917053c1)"><g clip-path="url(#8c9cf8e2a8)"><path fill="#ff66c4" d="M 31.003906 122.359375 C 28.417969 120.195312 28.070312 116.351562 30.234375 113.765625 L 87.28125 45.574219 C 89.445312 42.988281 93.292969 42.648438 95.878906 44.8125 C 98.464844 46.976562 98.8125 50.824219 96.648438 53.410156 L 39.601562 121.601562 C 37.4375 124.1875 33.589844 124.523438 31.003906 122.359375 Z M 31.003906 122.359375 " fill-opacity="1" fill-rule="nonzero"/></g></g></g><g clip-path="url(#cb3025634d)"><g clip-path="url(#d9ee769f42)"><g clip-path="url(#d486971f5b)"><path fill="#ff66c4" d="M 43.152344 132.519531 C 40.5625 130.359375 40.21875 126.511719 42.378906 123.925781 L 99.425781 55.734375 C 101.589844 53.148438 105.4375 52.808594 108.023438 54.972656 C 110.609375 57.136719 110.957031 60.984375 108.792969 63.570312 L 51.746094 131.761719 C 49.582031 134.347656 45.738281 134.683594 43.152344 132.519531 Z M 43.152344 132.519531 " fill-opacity="1" fill-rule="nonzero"/></g></g></g><g clip-path="url(#87601116db)"><g clip-path="url(#f429b87f38)"><g clip-path="url(#cf5db66584)"><path fill="#ff66c4" d="M 45.542969 154.34375 C 42.957031 152.179688 42.609375 148.332031 44.773438 145.746094 L 121.332031 54.226562 C 123.492188 51.644531 127.339844 51.304688 129.925781 53.46875 C 132.515625 55.632812 132.859375 59.480469 130.699219 62.0625 L 54.136719 153.582031 C 51.976562 156.167969 48.128906 156.507812 45.542969 154.34375 Z M 45.542969 154.34375 " fill-opacity="1" fill-rule="nonzero"/></g></g></g><g clip-path="url(#6c98af5461)"><g clip-path="url(#7e1f3cf1ee)"><g clip-path="url(#feefb10e5b)"><path fill="#ff66c4" d="M 49.738281 99.96875 L 33.410156 86.308594 C 30.824219 84.144531 30.476562 80.296875 32.640625 77.710938 L 52.222656 54.300781 C 54.382812 51.71875 58.230469 51.378906 60.816406 53.542969 L 77.148438 67.203125 C 79.734375 69.367188 80.082031 73.214844 77.917969 75.800781 L 58.335938 99.207031 C 56.171875 101.792969 52.324219 102.132812 49.738281 99.96875 Z M 45.917969 80.867188 L 52.882812 86.695312 L 64.636719 72.640625 L 57.671875 66.8125 Z M 45.917969 80.867188 " fill-opacity="1" fill-rule="nonzero"/></g></g></g></svg>