<svg xmlns:dc="http://purl.org/dc/elements/1.1/" xmlns:cc="http://creativecommons.org/ns#" xmlns:rdf="http://www.w3.org/1999/02/22-rdf-syntax-ns#" xmlns:svg="http://www.w3.org/2000/svg" xmlns="http://www.w3.org/2000/svg" xmlns:xlink="http://www.w3.org/1999/xlink" id="svg159290" viewBox="0 0 1024 768" height="768px" width="1024px" version="1.1">
  <metadata id="metadata159296">
    <rdf:rdf>
      <cc:work rdf:about="">
        <dc:format>image/svg+xml</dc:format>
        <dc:type rdf:resource="http://purl.org/dc/dcmitype/StillImage"></dc:type>
      </cc:work>
    </rdf:rdf>
  </metadata>
  <defs id="defs159294"></defs>
  <linearGradient spreadMethod="pad" y2="30%" x2="-10%" y1="120%" x1="30%" id="3d_gradient2-logo-c11bd974-ca1b-4a1f-9024-4f41c0d72fe9">
    <stop id="stop159271" stop-opacity="1" stop-color="#ffffff" offset="0%"></stop>
    <stop id="stop159273" stop-opacity="1" stop-color="#000000" offset="100%"></stop>
  </linearGradient>
  <linearGradient gradientTransform="rotate(-30)" spreadMethod="pad" y2="30%" x2="-10%" y1="120%" x1="30%" id="3d_gradient3-logo-c11bd974-ca1b-4a1f-9024-4f41c0d72fe9">
    <stop id="stop159276" stop-opacity="1" stop-color="#ffffff" offset="0%"></stop>
    <stop id="stop159278" stop-opacity="1" stop-color="#cccccc" offset="50%"></stop>
    <stop id="stop159280" stop-opacity="1" stop-color="#000000" offset="100%"></stop>
  </linearGradient>
  <g id="logo-group">
    <image xlink:href="" id="container" x="272" y="144" width="480" height="480" style="display: none;" transform="translate(0 0)"></image>
    <g id="logo-center" transform="translate(0 0)">
      <image xlink:href="" id="icon_container" style="display: none;" x="0" y="0"></image>
      <g id="slogan" style="font-style:normal;font-weight:400;font-size:32px;line-height:1;font-family:Karma;font-variant-ligatures:none;text-align:center;text-anchor:middle" transform="translate(0 0)"></g>
      <g id="title" style="font-style:normal;font-weight:normal;font-size:72px;line-height:1;font-family:'Brandmark Stencil 1';font-variant-ligatures:normal;text-align:center;text-anchor:middle" transform="translate(0 0)">
        <path id="path159299" style="font-style:normal;font-weight:normal;font-size:72px;line-height:1;font-family:'Brandmark Stencil 1';font-variant-ligatures:normal;text-align:center;text-anchor:middle" d="m 206.13387,-49.608 h -27.648 c -0.648,0 -1.224,0.504 -1.224,1.224 v 47.232 c 0,0.648 0.576,1.152 1.224,1.152 0.648,0 1.224,-0.504 1.224,-1.152 V -47.16 h 26.424 c 0.64801,0 1.224,-0.576 1.224,-1.224 0,-0.72 -0.57599,-1.224 -1.224,-1.224 z m -22.68,24.048 c 0,0.648 0.576,1.224 1.224,1.224 h 20.66401 c 0.64799,0 1.22399,-0.576 1.22399,-1.224 0,-0.648 -0.576,-1.224 -1.22399,-1.224 h -20.66401 c -0.648,0 -1.224,0.576 -1.224,1.224 z" stroke-width="0" stroke-linejoin="miter" stroke-miterlimit="2" fill="#e44b87" stroke="#e44b87" transform="translate(0 302.98703875) translate(259.7681075 62.41473800000001) scale(0.75) translate(-177.26187 49.608)"></path>
        <path id="path159301" style="font-style:normal;font-weight:normal;font-size:72px;line-height:1;font-family:'Brandmark Stencil 1';font-variant-ligatures:normal;text-align:center;text-anchor:middle" d="m 258.578,-49.608 c -0.72,0 -1.224,0.504 -1.224,1.224 v 30.096 c 0,8.784 -7.128,15.912 -15.912,15.912 -8.712,0 -15.84,-7.128 -15.84,-15.912 v -30.096 c 0,-0.72 -0.576,-1.224 -1.224,-1.224 -0.648,0 -1.224,0.504 -1.224,1.224 v 30.096 c 0,10.08 8.208,18.288 18.288,18.288 10.152,0 18.36,-8.208 18.36,-18.288 v -30.096 c 0,-0.72 -0.576,-1.224 -1.224,-1.224 z" stroke-width="0" stroke-linejoin="miter" stroke-miterlimit="2" fill="#e44b87" stroke="#e44b87" transform="translate(0 302.98703875) translate(294.187205 62.41473800000001) scale(0.75) translate(-223.154 49.608)"></path>
        <path id="path159303" style="font-style:normal;font-weight:normal;font-size:72px;line-height:1;font-family:'Brandmark Stencil 1';font-variant-ligatures:normal;text-align:center;text-anchor:middle" d="m 282.17487,-47.16 h 27.648 c 0.648,0 1.224,-0.576 1.224,-1.224 0,-0.72 -0.576,-1.224 -1.224,-1.224 h -27.648 c -0.64799,0 -1.224,0.504 -1.224,1.224 0,0.648 0.57601,1.224 1.224,1.224 z m -1.224,46.008 c 0,0.648 0.57601,1.152 1.224,1.152 h 27.648 c 0.648,0 1.224,-0.504 1.224,-1.152 0,-0.72 -0.576,-1.224 -1.224,-1.224 h -27.648 c -0.64799,0 -1.224,0.504 -1.224,1.224 z m 0,-6.264 c 0,0.72 0.57601,1.224 1.224,1.224 0.648,0 1.224,-0.504 1.224,-1.224 v -16.92 h 25.92 c 0.64801,0 1.224,-0.576 1.224,-1.224 0,-0.648 -0.57599,-1.224 -1.224,-1.224 h -25.92 v -15.408 c 0,-0.648 -0.576,-1.224 -1.224,-1.224 -0.64799,0 -1.224,0.576 -1.224,1.224 z" stroke-width="0" stroke-linejoin="miter" stroke-miterlimit="2" fill="#e44b87" stroke="#e44b87" transform="translate(0 302.98703875) translate(337.5348575 62.41473800000001) scale(0.75) translate(-280.95087 49.608)"></path>
        <path id="path159305" style="font-style:normal;font-weight:normal;font-size:72px;line-height:1;font-family:'Brandmark Stencil 1';font-variant-ligatures:normal;text-align:center;text-anchor:middle" d="m 329.939,-49.608 c -0.648,0 -1.224,0.504 -1.224,1.224 v 47.232 c 0,0.648 0.576,1.152 1.224,1.152 0.648,0 1.224,-0.504 1.224,-1.152 v -47.232 c 0,-0.72 -0.576,-1.224 -1.224,-1.224 z m 4.968,48.456 c 0,0.648 0.576,1.152 1.224,1.152 h 18.288 c 0.648,0 1.224,-0.504 1.224,-1.152 0,-0.72 -0.576,-1.224 -1.224,-1.224 h -18.288 c -0.648,0 -1.224,0.504 -1.224,1.224 z" stroke-width="0" stroke-linejoin="miter" stroke-miterlimit="2" fill="#e44b87" stroke="#e44b87" transform="translate(0 302.98703875) translate(373.35795499999995 62.41473800000001) scale(0.75) translate(-328.715 49.608)"></path>
        <path id="path159307" style="font-style:normal;font-weight:normal;font-size:72px;line-height:1;font-family:'Brandmark Stencil 1';font-variant-ligatures:normal;text-align:center;text-anchor:middle" d="m 371.0015,-49.608 c -0.648,0 -1.224,0.504 -1.224,1.224 v 47.232 c 0,0.648 0.576,1.152 1.224,1.152 0.648,0 1.224,-0.504 1.224,-1.152 v -47.232 c 0,-0.72 -0.576,-1.224 -1.224,-1.224 z m 4.968,48.456 c 0,0.648 0.576,1.152 1.224,1.152 h 18.288 c 0.648,0 1.224,-0.504 1.224,-1.152 0,-0.72 -0.576,-1.224 -1.224,-1.224 h -18.288 c -0.648,0 -1.224,0.504 -1.224,1.224 z" stroke-width="0" stroke-linejoin="miter" stroke-miterlimit="2" fill="#e44b87" stroke="#e44b87" transform="translate(0 302.98703875) translate(404.15482999999995 62.41473800000001) scale(0.75) translate(-369.7775 49.608)"></path>
        <path id="path159309" style="font-style:normal;font-weight:normal;font-size:72px;line-height:1;font-family:'Brandmark Stencil 1';font-variant-ligatures:normal;text-align:center;text-anchor:middle" d="m 411.128,-47.16 h 27.648 c 0.648,0 1.224,-0.576 1.224,-1.224 0,-0.72 -0.576,-1.224 -1.224,-1.224 h -27.648 c -0.648,0 -1.224,0.504 -1.224,1.224 0,0.648 0.576,1.224 1.224,1.224 z m -1.224,46.008 c 0,0.648 0.576,1.152 1.224,1.152 h 27.648 c 0.648,0 1.224,-0.504 1.224,-1.152 0,-0.72 -0.576,-1.224 -1.224,-1.224 h -27.648 c -0.648,0 -1.224,0.504 -1.224,1.224 z m 0,-6.264 c 0,0.72 0.576,1.224 1.224,1.224 0.648,0 1.224,-0.504 1.224,-1.224 v -16.92 h 25.92 c 0.648,0 1.224,-0.576 1.224,-1.224 0,-0.648 -0.576,-1.224 -1.224,-1.224 h -25.92 v -15.408 c 0,-0.648 -0.576,-1.224 -1.224,-1.224 -0.648,0 -1.224,0.576 -1.224,1.224 z" stroke-width="0" stroke-linejoin="miter" stroke-miterlimit="2" fill="#e44b87" stroke="#e44b87" transform="translate(0 302.98703875) translate(434.249705 62.41473800000001) scale(0.75) translate(-409.904 49.608)"></path>
        <path id="path159311" style="font-style:normal;font-weight:normal;font-size:72px;line-height:1;font-family:'Brandmark Stencil 1';font-variant-ligatures:normal;text-align:center;text-anchor:middle" d="m 471.78012,-49.608 h -13.10399 c -0.64801,0 -1.224,0.504 -1.224,1.224 0,0.648 0.57599,1.224 1.224,1.224 h 13.10399 c 12.312,0 22.392,10.008 22.392,22.392 0,5.976 -2.37599,11.592 -6.55199,15.84 -4.24801,4.176 -9.86401,6.552 -15.84001,6.552 h -13.10399 c -0.64801,0 -1.224,0.504 -1.224,1.224 0,0.648 0.57599,1.152 1.224,1.152 h 13.10399 c 6.62401,0 12.81601,-2.52 17.496,-7.272 4.752,-4.68 7.27201,-10.872 7.27201,-17.496 0,-13.68 -11.08801,-24.84 -24.76801,-24.84 z m -14.18399,42.192 c 0,0.72 0.57599,1.224 1.224,1.224 0.71999,0 1.22399,-0.504 1.22399,-1.224 v -34.776 c 0,-0.648 -0.504,-1.224 -1.22399,-1.224 -0.64801,0 -1.224,0.576 -1.224,1.224 z" stroke-width="0" stroke-linejoin="miter" stroke-miterlimit="2" fill="#e44b87" stroke="#e44b87" transform="translate(0 302.98703875) translate(469.91080250000005 62.41473800000001) scale(0.75) translate(-457.45213 49.608)"></path>
        <path id="path159313" style="font-style:normal;font-weight:normal;font-size:72px;line-height:1;font-family:'Brandmark Stencil 1';font-variant-ligatures:normal;text-align:center;text-anchor:middle" d="m 579.07137,-49.608 h -27.648 c -0.64799,0 -1.22399,0.504 -1.22399,1.224 v 47.232 c 0,0.648 0.576,1.152 1.22399,1.152 0.648,0 1.224,-0.504 1.224,-1.152 V -47.16 h 26.424 c 0.64801,0 1.22401,-0.576 1.22401,-1.224 0,-0.72 -0.576,-1.224 -1.22401,-1.224 z m -22.67999,24.048 c 0,0.648 0.57599,1.224 1.22399,1.224 h 20.664 c 0.648,0 1.224,-0.576 1.224,-1.224 0,-0.648 -0.576,-1.224 -1.224,-1.224 h -20.664 c -0.648,0 -1.22399,0.576 -1.22399,1.224 z" stroke-width="0" stroke-linejoin="miter" stroke-miterlimit="2" fill="#c12064" stroke="#c12064" transform="translate(0 302.98703875) translate(539.4712400000001 62.41473800000001) scale(0.75) translate(-550.19938 49.608)"></path>
        <path id="path159315" style="font-style:normal;font-weight:normal;font-size:72px;line-height:1;font-family:'Brandmark Stencil 1';font-variant-ligatures:normal;text-align:center;text-anchor:middle" d="m 598.11087,-49.608 c -0.64799,0 -1.22399,0.504 -1.22399,1.224 v 47.232 c 0,0.648 0.576,1.152 1.22399,1.152 0.648,0 1.224,-0.504 1.224,-1.152 v -47.232 c 0,-0.72 -0.576,-1.224 -1.224,-1.224 z" stroke-width="0" stroke-linejoin="miter" stroke-miterlimit="2" fill="#c12064" stroke="#c12064" transform="translate(0 302.98703875) translate(574.4868650000001 62.41473800000001) scale(0.75) translate(-596.88688 49.608)"></path>
        <path id="path159317" style="font-style:normal;font-weight:normal;font-size:72px;line-height:1;font-family:'Brandmark Stencil 1';font-variant-ligatures:normal;text-align:center;text-anchor:middle" d="m 650.81713,-49.608 h -35.928 c -0.64801,0 -1.22401,0.504 -1.22401,1.224 0,0.648 0.576,1.224 1.22401,1.224 h 35.928 c 0.64799,0 1.15199,-0.576 1.15199,-1.224 0,-0.72 -0.504,-1.224 -1.15199,-1.224 z m -19.22401,48.456 c 0,0.648 0.576,1.152 1.22401,1.152 0.72,0 1.22399,-0.504 1.22399,-1.152 v -41.04 c 0,-0.648 -0.50399,-1.224 -1.22399,-1.224 -0.64801,0 -1.22401,0.576 -1.22401,1.224 z" stroke-width="0" stroke-linejoin="miter" stroke-miterlimit="2" fill="#c12064" stroke="#c12064" transform="translate(0 302.98703875) translate(587.070545 62.41473800000001) scale(0.75) translate(-613.66512 49.608)"></path>
        <path id="path159319" style="font-style:normal;font-weight:normal;font-size:72px;line-height:1;font-family:'Brandmark Stencil 1';font-variant-ligatures:normal;text-align:center;text-anchor:middle" d="m 702.64363,-49.608 c -0.648,0 -1.15201,0.504 -1.15201,1.224 v 43.56 l -32.976,-44.28 c -0.288,-0.432 -0.864,-0.648 -1.296,-0.432 -0.50399,0.144 -0.86399,0.576 -0.86399,1.152 v 47.232 c 0,0.648 0.576,1.152 1.22399,1.152 0.648,0 1.224,-0.504 1.224,-1.152 v -43.56 l 32.904,44.28 C 701.92363,-0.144 702.28363,0 702.64363,0 h 0.43199 c 0.504,-0.216 0.792,-0.648 0.792,-1.152 v -47.232 c 0,-0.72 -0.504,-1.224 -1.22399,-1.224 z" stroke-width="0" stroke-linejoin="miter" stroke-miterlimit="2" fill="#c12064" stroke="#c12064" transform="translate(0 302.98703875) translate(626.5884275000001 62.405184500000004) scale(0.75) translate(-666.35563 49.620738)"></path>
        <path id="path159321" style="font-style:normal;font-weight:normal;font-size:72px;line-height:1;font-family:'Brandmark Stencil 1';font-variant-ligatures:normal;text-align:center;text-anchor:middle" d="m 723.5945,-47.16 h 59.688 c 8.568,0 13.392,5.112 13.464,5.184 0.216,0.288 0.576,0.36 0.864,0.36 0.288,0 0.576,-0.072 0.792,-0.288 0.504,-0.432 0.576,-1.224 0.144,-1.728 -0.216,-0.216 -5.544,-5.976 -15.264,-5.976 h -59.688 c -0.648,0 -1.224,0.504 -1.224,1.224 0,0.648 0.576,1.224 1.224,1.224 z m -1.224,46.008 c 0,0.648 0.576,1.152 1.224,1.152 h 27.648 c 0.648,0 1.224,-0.504 1.224,-1.152 0,-0.72 -0.576,-1.224 -1.224,-1.224 h -27.648 c -0.648,0 -1.224,0.504 -1.224,1.224 z m 0,-24.408 c 0,0.648 0.576,1.224 1.224,1.224 h 27.144 c 0.648,0 1.224,-0.576 1.224,-1.224 0,-0.648 -0.576,-1.224 -1.224,-1.224 h -27.144 c -0.648,0 -1.224,0.576 -1.224,1.224 z m 44.28,18.72 c 0.288,0.288 7.056,6.84 17.136,6.84 10.872,0 16.488,-6.048 16.488,-11.952 0,-9.432 -8.784,-12.456 -16.56,-15.192 -7.2,-2.448 -13.392,-4.608 -13.392,-10.584 0,-0.504 0.072,-1.08 0.144,-1.512 0.072,-0.648 -0.36,-1.296 -1.08,-1.368 -0.648,-0.072 -1.224,0.36 -1.368,1.008 -0.072,0.576 -0.072,1.224 -0.072,1.872 0,7.704 7.56,10.368 14.976,12.888 7.632,2.664 14.904,5.184 14.904,12.888 0,6.192 -7.2,9.576 -14.04,9.576 -9,0 -15.336,-6.12 -15.408,-6.192 -0.504,-0.432 -1.296,-0.432 -1.728,0 -0.504,0.504 -0.504,1.296 0,1.728 z" stroke-width="0" stroke-linejoin="miter" stroke-miterlimit="2" fill="#c12064" stroke="#c12064" transform="translate(0 302.98703875) translate(668.5995800000001 62.41473800000001) scale(0.75) translate(-722.3705 49.608)"></path>
        <path id="path159323" style="font-style:normal;font-weight:normal;font-size:72px;line-height:1;font-family:'Brandmark Stencil 1';font-variant-ligatures:normal;text-align:center;text-anchor:middle" d="m 833.32025,-27.144 c -7.2,-2.448 -13.392,-4.608 -13.392,-10.584 0,-8.568 9.072,-9.432 12.96,-9.432 8.568,0 13.392,5.112 13.464,5.184 0.432,0.504 1.152,0.504 1.656,0.072 0.504,-0.432 0.576,-1.224 0.144,-1.728 -0.216,-0.216 -5.544,-5.976 -15.264,-5.976 -9.648,0 -15.336,4.392 -15.336,11.88 0,7.704 7.56,10.368 14.976,12.888 7.632,2.664 14.904,5.184 14.904,12.888 0,6.192 -7.2,9.576 -14.04,9.576 -9,0 -15.336,-6.12 -15.408,-6.192 -0.504,-0.432 -1.296,-0.432 -1.728,0 -0.504,0.504 -0.504,1.296 0,1.728 0.288,0.288 7.056,6.84 17.136,6.84 10.8,0 16.488,-6.048 16.488,-11.952 0,-9.432 -8.784,-12.456 -16.56,-15.192 z" stroke-width="0" stroke-linejoin="miter" stroke-miterlimit="2" fill="#c12064" stroke="#c12064" transform="translate(0 302.98703875) translate(738.7303925000001 62.41473800000001) scale(0.75) translate(-815.87825 49.608)"></path>
      </g>
      <image xlink:href="" id="icon" style="display: none;" x="0" y="0"></image>
    </g>
  </g>
</svg>