<svg xmlns="http://www.w3.org/2000/svg" xmlns:xlink="http://www.w3.org/1999/xlink" width="500" zoomAndPan="magnify" viewBox="0 0 375 374.999991" height="500" preserveAspectRatio="xMidYMid meet" version="1.0"><defs><g/></defs><g fill="#000000" fill-opacity="1"><g transform="translate(4.965315, 164.863981)"><g><path d="M 5.328125 -2.117188 L 6.058594 -0.730469 L 7.667969 0 L 12.777344 0.21875 L 16.425781 -0.0742188 L 17.960938 -0.730469 L 18.835938 -2.921875 L 18.617188 -5.257812 L 18.765625 -6.644531 L 18.691406 -14.382812 L 19.347656 -15.84375 L 20.808594 -16.5 L 22.414062 -16.648438 L 23.949219 -16.355469 L 25.40625 -16.648438 L 26.867188 -16.5 L 28.402344 -16.574219 L 29.863281 -16.425781 L 32.855469 -16.574219 L 34.390625 -17.304688 L 35.117188 -19.566406 L 35.046875 -26.066406 L 34.316406 -27.527344 L 32.78125 -28.109375 L 29.203125 -28.253906 L 25.335938 -27.964844 L 22.488281 -28.328125 L 20.882812 -28.253906 L 19.421875 -28.839844 L 18.617188 -30.371094 L 18.617188 -32.417969 L 18.765625 -33.804688 L 18.617188 -37.089844 L 19.347656 -38.550781 L 20.734375 -39.5 L 23.070312 -39.5 L 25.1875 -39.351562 L 26.503906 -39.425781 L 27.964844 -39.351562 L 29.496094 -39.5 L 35.046875 -39.351562 L 36.507812 -40.082031 L 37.234375 -41.542969 L 37.089844 -45.265625 L 37.234375 -48.042969 L 36.359375 -50.230469 L 35.117188 -51.035156 L 30.738281 -50.960938 L 29.132812 -51.179688 L 26.285156 -51.035156 L 24.96875 -51.179688 L 22.78125 -51.035156 L 21.320312 -51.109375 L 19.054688 -50.960938 L 16.207031 -50.960938 L 14.894531 -51.109375 L 11.171875 -51.109375 L 9.636719 -50.960938 L 7.59375 -51.035156 L 5.988281 -50.230469 L 5.550781 -48.917969 L 5.328125 -45.925781 L 5.550781 -43.734375 L 5.257812 -35.558594 L 5.402344 -34.316406 L 5.476562 -32.78125 L 5.328125 -31.46875 L 5.476562 -29.789062 L 5.328125 -28.476562 L 5.257812 -27.085938 L 5.402344 -25.699219 L 5.257812 -24.019531 Z M 5.328125 -2.117188 "/></g></g></g><g fill="#000000" fill-opacity="1"><g transform="translate(54.685173, 164.863981)"><g><path d="M 25.117188 0.949219 L 27.304688 0.730469 L 28.695312 0.804688 L 34.390625 -0.65625 L 37.015625 -2.042969 L 39.425781 -3.652344 L 41.472656 -5.695312 L 43.148438 -8.25 L 43.589844 -9.710938 L 44.316406 -10.953125 L 44.976562 -14.019531 L 45.339844 -17.523438 L 45.339844 -37.234375 L 45.195312 -38.625 L 45.339844 -40.230469 L 45.195312 -41.398438 L 45.195312 -47.457031 L 45.414062 -48.917969 L 44.464844 -50.453125 L 42.859375 -50.960938 L 38.257812 -50.816406 L 35.191406 -51.035156 L 33.660156 -50.304688 L 32.855469 -48.699219 L 33 -19.933594 L 32.492188 -15.40625 L 32.050781 -14.308594 L 31.25 -12.851562 L 30.007812 -11.972656 L 27.453125 -11.023438 L 23.070312 -11.023438 L 21.390625 -11.390625 L 20.152344 -12.121094 L 18.984375 -12.996094 L 18.105469 -14.164062 L 17.667969 -15.550781 L 17.230469 -19.785156 L 17.449219 -43.296875 L 17.304688 -44.390625 L 17.449219 -46.726562 L 17.304688 -48.84375 L 16.425781 -50.453125 L 14.894531 -51.109375 L 13.507812 -51.109375 L 12.046875 -50.890625 L 8.90625 -51.179688 L 7.375 -50.960938 L 5.839844 -50.378906 L 4.890625 -48.992188 L 5.039062 -47.53125 L 5.039062 -45.777344 L 4.890625 -44.609375 L 5.109375 -34.390625 L 4.890625 -32.929688 L 5.039062 -31.542969 L 4.820312 -19.785156 L 5.257812 -13.945312 L 5.988281 -10.953125 L 7.15625 -8.46875 L 8.835938 -5.839844 L 9.710938 -4.820312 L 10.804688 -3.871094 L 13.140625 -2.335938 L 14.601562 -1.679688 L 15.699219 -1.023438 L 18.472656 0.21875 L 21.320312 0.804688 L 22.78125 0.804688 Z M 25.117188 0.949219 "/></g></g></g><g fill="#000000" fill-opacity="1"><g transform="translate(114.991152, 164.863981)"><g><path d="M 25.40625 0.21875 L 35.847656 0.0742188 L 37.382812 -0.585938 L 38.183594 -2.117188 L 38.183594 -9.492188 L 37.382812 -10.953125 L 35.847656 -11.609375 L 34.167969 -11.464844 L 32.78125 -11.683594 L 29.058594 -11.753906 L 26.648438 -11.464844 L 25.1875 -11.609375 L 23.582031 -11.535156 L 22.195312 -11.753906 L 20.589844 -11.609375 L 19.054688 -12.339844 L 18.472656 -13.652344 L 18.472656 -18.253906 L 19.128906 -19.785156 L 20.445312 -20.589844 L 22.632812 -20.664062 L 24.96875 -20.445312 L 27.746094 -20.589844 L 30.738281 -20.515625 L 32.199219 -20.664062 L 33.878906 -20.589844 L 35.335938 -21.171875 L 35.847656 -22.632812 L 36.066406 -29.203125 L 35.335938 -31.25 L 33.660156 -32.199219 L 29.351562 -32.199219 L 27.816406 -32.050781 L 24.75 -32.269531 L 20.515625 -32.125 L 18.984375 -32.78125 L 18.398438 -35.046875 L 18.398438 -37.308594 L 19.054688 -38.695312 L 20.664062 -39.28125 L 22.050781 -39.207031 L 23.4375 -39.5 L 33.878906 -39.351562 L 35.265625 -39.425781 L 36.796875 -40.300781 L 37.527344 -41.617188 L 37.457031 -43.078125 L 37.527344 -44.539062 L 37.382812 -48.917969 L 36.726562 -50.304688 L 35.265625 -50.890625 L 33.730469 -50.890625 L 32.417969 -51.179688 L 26.503906 -51.109375 L 24.898438 -50.960938 L 23.4375 -51.109375 L 22.195312 -51.035156 L 20.734375 -51.179688 L 14.75 -51.035156 L 13.289062 -51.253906 L 11.902344 -50.960938 L 10.585938 -51.109375 L 9.125 -50.960938 L 7.667969 -51.035156 L 6.132812 -50.453125 L 5.328125 -48.917969 L 5.476562 -46.144531 L 5.257812 -43.148438 L 5.476562 -41.542969 L 5.328125 -34.390625 L 5.550781 -32.855469 L 5.402344 -31.46875 L 5.328125 -25.480469 L 5.550781 -24.167969 L 5.476562 -12.339844 L 5.328125 -10.953125 L 5.550781 -9.492188 L 5.328125 -4.453125 L 5.476562 -2.847656 L 6.058594 -0.875 L 8.25 0.0742188 L 13.507812 0.144531 L 15.113281 0 L 16.425781 0.0742188 L 19.421875 -0.144531 L 20.808594 0.144531 L 22.488281 0.21875 L 23.949219 0.0742188 Z M 25.40625 0.21875 "/></g></g></g><g fill="#000000" fill-opacity="1"><g transform="translate(166.755226, 164.863981)"><g><path d="M 5.550781 -2.628906 L 6.058594 -0.730469 L 7.445312 0 L 8.90625 0.144531 L 11.972656 -0.0742188 L 14.820312 0.0742188 L 17.597656 -0.0742188 L 18.984375 0.144531 L 20.589844 0 L 35.046875 0.0742188 L 36.433594 -0.65625 L 37.234375 -2.921875 L 37.164062 -8.835938 L 36.507812 -11.023438 L 35.191406 -11.902344 L 33.660156 -11.753906 L 32.269531 -11.464844 L 30.738281 -11.683594 L 27.746094 -11.609375 L 26.285156 -11.902344 L 24.96875 -11.683594 L 22.121094 -11.828125 L 20.589844 -11.683594 L 19.128906 -12.265625 L 18.546875 -13.726562 L 18.617188 -38.476562 L 18.472656 -40.230469 L 18.617188 -43.148438 L 18.398438 -47.3125 L 18.472656 -48.699219 L 17.742188 -50.304688 L 16.28125 -51.179688 L 13.433594 -51.179688 L 11.972656 -50.890625 L 9.054688 -51.179688 L 7.667969 -50.960938 L 6.132812 -50.378906 L 5.476562 -48.773438 L 5.476562 -38.550781 L 5.328125 -37.164062 L 5.476562 -35.703125 L 5.257812 -33 L 5.328125 -31.394531 L 5.476562 -30.007812 Z M 5.550781 -2.628906 "/></g></g></g><g fill="#000000" fill-opacity="1"><g transform="translate(215.964029, 164.863981)"><g><path d="M 5.550781 -2.628906 L 6.058594 -0.730469 L 7.445312 0 L 8.90625 0.144531 L 11.972656 -0.0742188 L 14.820312 0.0742188 L 17.597656 -0.0742188 L 18.984375 0.144531 L 20.589844 0 L 35.046875 0.0742188 L 36.433594 -0.65625 L 37.234375 -2.921875 L 37.164062 -8.835938 L 36.507812 -11.023438 L 35.191406 -11.902344 L 33.660156 -11.753906 L 32.269531 -11.464844 L 30.738281 -11.683594 L 27.746094 -11.609375 L 26.285156 -11.902344 L 24.96875 -11.683594 L 22.121094 -11.828125 L 20.589844 -11.683594 L 19.128906 -12.265625 L 18.546875 -13.726562 L 18.617188 -38.476562 L 18.472656 -40.230469 L 18.617188 -43.148438 L 18.398438 -47.3125 L 18.472656 -48.699219 L 17.742188 -50.304688 L 16.28125 -51.179688 L 13.433594 -51.179688 L 11.972656 -50.890625 L 9.054688 -51.179688 L 7.667969 -50.960938 L 6.132812 -50.378906 L 5.476562 -48.773438 L 5.476562 -38.550781 L 5.328125 -37.164062 L 5.476562 -35.703125 L 5.257812 -33 L 5.328125 -31.394531 L 5.476562 -30.007812 Z M 5.550781 -2.628906 "/></g></g></g><g fill="#000000" fill-opacity="1"><g transform="translate(265.172833, 164.863981)"><g><path d="M 25.40625 0.21875 L 35.847656 0.0742188 L 37.382812 -0.585938 L 38.183594 -2.117188 L 38.183594 -9.492188 L 37.382812 -10.953125 L 35.847656 -11.609375 L 34.167969 -11.464844 L 32.78125 -11.683594 L 29.058594 -11.753906 L 26.648438 -11.464844 L 25.1875 -11.609375 L 23.582031 -11.535156 L 22.195312 -11.753906 L 20.589844 -11.609375 L 19.054688 -12.339844 L 18.472656 -13.652344 L 18.472656 -18.253906 L 19.128906 -19.785156 L 20.445312 -20.589844 L 22.632812 -20.664062 L 24.96875 -20.445312 L 27.746094 -20.589844 L 30.738281 -20.515625 L 32.199219 -20.664062 L 33.878906 -20.589844 L 35.335938 -21.171875 L 35.847656 -22.632812 L 36.066406 -29.203125 L 35.335938 -31.25 L 33.660156 -32.199219 L 29.351562 -32.199219 L 27.816406 -32.050781 L 24.75 -32.269531 L 20.515625 -32.125 L 18.984375 -32.78125 L 18.398438 -35.046875 L 18.398438 -37.308594 L 19.054688 -38.695312 L 20.664062 -39.28125 L 22.050781 -39.207031 L 23.4375 -39.5 L 33.878906 -39.351562 L 35.265625 -39.425781 L 36.796875 -40.300781 L 37.527344 -41.617188 L 37.457031 -43.078125 L 37.527344 -44.539062 L 37.382812 -48.917969 L 36.726562 -50.304688 L 35.265625 -50.890625 L 33.730469 -50.890625 L 32.417969 -51.179688 L 26.503906 -51.109375 L 24.898438 -50.960938 L 23.4375 -51.109375 L 22.195312 -51.035156 L 20.734375 -51.179688 L 14.75 -51.035156 L 13.289062 -51.253906 L 11.902344 -50.960938 L 10.585938 -51.109375 L 9.125 -50.960938 L 7.667969 -51.035156 L 6.132812 -50.453125 L 5.328125 -48.917969 L 5.476562 -46.144531 L 5.257812 -43.148438 L 5.476562 -41.542969 L 5.328125 -34.390625 L 5.550781 -32.855469 L 5.402344 -31.46875 L 5.328125 -25.480469 L 5.550781 -24.167969 L 5.476562 -12.339844 L 5.328125 -10.953125 L 5.550781 -9.492188 L 5.328125 -4.453125 L 5.476562 -2.847656 L 6.058594 -0.875 L 8.25 0.0742188 L 13.507812 0.144531 L 15.113281 0 L 16.425781 0.0742188 L 19.421875 -0.144531 L 20.808594 0.144531 L 22.488281 0.21875 L 23.949219 0.0742188 Z M 25.40625 0.21875 "/></g></g></g><g fill="#000000" fill-opacity="1"><g transform="translate(316.936892, 164.863981)"><g><path d="M 22.488281 0.21875 L 24.679688 0.21875 L 26.941406 -0.0742188 L 28.402344 -0.0742188 L 30.519531 -0.730469 L 33.511719 -1.242188 L 36.945312 -2.703125 L 41.835938 -5.988281 L 45.414062 -10.585938 L 46.144531 -12.046875 L 47.019531 -13.214844 L 48.1875 -16.0625 L 48.554688 -17.449219 L 48.84375 -18.984375 L 49.28125 -20.222656 L 49.503906 -21.683594 L 49.503906 -23.21875 L 49.722656 -25.554688 L 49.648438 -27.671875 L 48.625 -33.441406 L 47.675781 -36.214844 L 47.09375 -37.601562 L 44.609375 -41.472656 L 40.742188 -45.777344 L 37.015625 -48.261719 L 35.628906 -49.0625 L 34.167969 -49.355469 L 32.929688 -49.941406 L 31.394531 -50.304688 L 27.085938 -50.960938 L 10.441406 -51.109375 L 9.125 -50.890625 L 7.667969 -50.960938 L 6.058594 -50.304688 L 5.402344 -48.773438 L 5.328125 -7.957031 L 5.476562 -6.570312 L 5.476562 -2.847656 L 6.207031 -0.585938 L 7.667969 0.144531 L 9.125 0 L 18.035156 0.144531 L 19.496094 -0.0742188 Z M 22.269531 -11.753906 L 20.882812 -11.902344 L 19.203125 -12.703125 L 18.617188 -14.089844 L 18.546875 -15.332031 L 18.617188 -18.324219 L 18.324219 -21.902344 L 18.617188 -25.554688 L 18.472656 -35.628906 L 18.617188 -36.871094 L 19.347656 -38.550781 L 21.683594 -39.0625 L 24.75 -39.132812 L 26.867188 -38.914062 L 29.714844 -38.113281 L 31.03125 -37.457031 L 32.125 -36.652344 L 33.21875 -35.628906 L 34.316406 -34.316406 L 35.046875 -33.074219 L 35.703125 -31.761719 L 36.871094 -25.335938 L 36.140625 -20.222656 L 34.898438 -17.523438 L 32.199219 -14.457031 L 29.714844 -12.851562 L 27.597656 -12.191406 L 24.460938 -11.828125 Z M 22.269531 -11.753906 "/></g></g></g><g fill="#101010" fill-opacity="1"><g transform="translate(5.803897, 258.328756)"><g><path d="M 5.328125 -2.117188 L 6.058594 -0.730469 L 7.667969 0 L 12.777344 0.21875 L 16.425781 -0.0742188 L 17.960938 -0.730469 L 18.835938 -2.921875 L 18.617188 -5.257812 L 18.765625 -6.644531 L 18.691406 -14.382812 L 19.347656 -15.84375 L 20.808594 -16.5 L 22.414062 -16.648438 L 23.949219 -16.355469 L 25.40625 -16.648438 L 26.867188 -16.5 L 28.402344 -16.574219 L 29.863281 -16.425781 L 32.855469 -16.574219 L 34.390625 -17.304688 L 35.117188 -19.566406 L 35.046875 -26.066406 L 34.316406 -27.527344 L 32.78125 -28.109375 L 29.203125 -28.253906 L 25.335938 -27.964844 L 22.488281 -28.328125 L 20.882812 -28.253906 L 19.421875 -28.839844 L 18.617188 -30.371094 L 18.617188 -32.417969 L 18.765625 -33.804688 L 18.617188 -37.089844 L 19.347656 -38.550781 L 20.734375 -39.5 L 23.070312 -39.5 L 25.1875 -39.351562 L 26.503906 -39.425781 L 27.964844 -39.351562 L 29.496094 -39.5 L 35.046875 -39.351562 L 36.507812 -40.082031 L 37.234375 -41.542969 L 37.089844 -45.265625 L 37.234375 -48.042969 L 36.359375 -50.230469 L 35.117188 -51.035156 L 30.738281 -50.960938 L 29.132812 -51.179688 L 26.285156 -51.035156 L 24.96875 -51.179688 L 22.78125 -51.035156 L 21.320312 -51.109375 L 19.054688 -50.960938 L 16.207031 -50.960938 L 14.894531 -51.109375 L 11.171875 -51.109375 L 9.636719 -50.960938 L 7.59375 -51.035156 L 5.988281 -50.230469 L 5.550781 -48.917969 L 5.328125 -45.925781 L 5.550781 -43.734375 L 5.257812 -35.558594 L 5.402344 -34.316406 L 5.476562 -32.78125 L 5.328125 -31.46875 L 5.476562 -29.789062 L 5.328125 -28.476562 L 5.257812 -27.085938 L 5.402344 -25.699219 L 5.257812 -24.019531 Z M 5.328125 -2.117188 "/></g></g></g><g fill="#101010" fill-opacity="1"><g transform="translate(55.523754, 258.328756)"><g><path d="M 24.460938 0.292969 L 27.378906 0.144531 L 28.695312 -0.585938 L 29.425781 -1.972656 L 29.425781 -9.199219 L 28.546875 -10.585938 L 26.941406 -11.390625 L 25.40625 -11.390625 L 23.65625 -11.972656 L 22.78125 -13.652344 L 23 -15.039062 L 22.925781 -23.070312 L 23.070312 -24.679688 L 22.78125 -29.933594 L 23.070312 -37.308594 L 23.582031 -38.988281 L 25.1875 -39.644531 L 26.648438 -39.863281 L 28.183594 -40.449219 L 28.914062 -41.617188 L 28.984375 -48.84375 L 28.109375 -50.230469 L 26.796875 -51.035156 L 17.960938 -51.035156 L 16.648438 -51.179688 L 15.1875 -50.890625 L 9.199219 -50.890625 L 7.8125 -51.109375 L 6.132812 -51.109375 L 4.671875 -50.378906 L 3.941406 -48.625 L 4.160156 -43.222656 L 4.015625 -41.835938 L 4.820312 -40.375 L 6.425781 -39.574219 L 7.886719 -39.574219 L 9.273438 -38.695312 L 9.929688 -36.726562 L 10.148438 -14.308594 L 9.34375 -12.121094 L 4.527344 -10.660156 L 3.722656 -9.34375 L 3.503906 -2.628906 L 4.234375 -0.65625 L 5.695312 0 L 7.082031 0 L 8.46875 -0.144531 L 10.585938 0.144531 L 12.851562 0.0742188 L 14.308594 -0.0742188 L 17.230469 0.21875 L 19.421875 -0.0742188 L 23 -0.0742188 Z M 24.460938 0.292969 "/></g></g></g><g fill="#101010" fill-opacity="1"><g transform="translate(98.599905, 258.328756)"><g><path d="M 19.054688 0.144531 L 23.949219 0 L 26.066406 -0.730469 L 26.796875 -2.773438 L 27.015625 -6.570312 L 26.796875 -9.34375 L 26.941406 -10.878906 L 26.867188 -13.800781 L 27.015625 -15.113281 L 26.796875 -16.71875 L 26.941406 -28.476562 L 26.722656 -30.007812 L 26.941406 -36.359375 L 27.527344 -38.550781 L 28.914062 -39.425781 L 31.761719 -39.574219 L 34.460938 -39.207031 L 35.996094 -39.425781 L 37.308594 -39.351562 L 38.550781 -40.15625 L 39.425781 -41.761719 L 39.5 -48.699219 L 38.695312 -50.160156 L 37.308594 -51.109375 L 32.78125 -51.109375 L 31.394531 -51.253906 L 29.863281 -51.035156 L 28.476562 -51.179688 L 22.5625 -50.890625 L 21.101562 -51.179688 L 19.714844 -51.253906 L 18.179688 -51.035156 L 16.574219 -51.179688 L 15.257812 -50.890625 L 10.953125 -51.109375 L 8.6875 -50.890625 L 3.578125 -51.179688 L 2.191406 -50.453125 L 1.3125 -48.773438 L 1.386719 -47.3125 L 1.242188 -43.660156 L 1.386719 -41.398438 L 2.042969 -40.082031 L 3.359375 -39.351562 L 4.820312 -39.5 L 11.753906 -39.351562 L 13.140625 -38.625 L 13.945312 -37.164062 L 13.800781 -34.828125 L 13.945312 -32.78125 L 13.871094 -31.175781 L 13.945312 -29.714844 L 13.800781 -27.671875 L 14.019531 -16.792969 L 13.871094 -15.332031 L 13.800781 -9.417969 L 13.945312 -7.886719 L 13.871094 -3.652344 L 13.726562 -2.261719 L 14.675781 -0.65625 L 16.792969 0.0742188 Z M 19.054688 0.144531 "/></g></g></g><g fill="#101010" fill-opacity="1"><g transform="translate(149.341892, 258.328756)"><g><path d="M 43.078125 -1.242188 L 45.046875 -0.0742188 L 47.09375 0.144531 L 48.699219 -0.363281 L 49.429688 -1.824219 L 49.574219 -28.476562 L 49.355469 -29.714844 L 49.355469 -36.945312 L 49.574219 -38.695312 L 49.355469 -48.84375 L 48.625 -50.304688 L 47.164062 -51.109375 L 38.113281 -51.035156 L 36.726562 -50.230469 L 35.921875 -48.699219 L 35.847656 -47.164062 L 36.066406 -45.996094 L 35.847656 -42.929688 L 35.996094 -41.324219 L 35.847656 -28.253906 L 35.410156 -27.015625 L 34.316406 -27.527344 L 29.132812 -32.710938 L 27.085938 -34.316406 L 12.703125 -48.84375 L 11.609375 -49.722656 L 9.929688 -50.597656 L 7.738281 -51.109375 L 6.058594 -50.378906 L 5.402344 -48.992188 L 5.402344 -26.867188 L 5.328125 -25.628906 L 5.476562 -22.632812 L 5.257812 -21.390625 L 5.402344 -9.417969 L 5.257812 -8.03125 L 5.402344 -1.898438 L 6.058594 -0.511719 L 7.59375 0 L 10.585938 0.144531 L 12.191406 0 L 15.039062 0.21875 L 16.574219 0.144531 L 18.035156 -0.585938 L 18.765625 -2.847656 L 18.835938 -21.320312 L 18.984375 -22.78125 L 19.496094 -24.019531 L 20.445312 -23.65625 L 21.390625 -22.414062 L 26.578125 -17.449219 L 27.527344 -16.355469 L 28.765625 -15.550781 L 40.082031 -4.308594 L 41.980469 -2.191406 Z M 43.078125 -1.242188 "/></g></g></g><g fill="#101010" fill-opacity="1"><g transform="translate(214.320361, 258.328756)"><g><path d="M 25.40625 0.21875 L 35.847656 0.0742188 L 37.382812 -0.585938 L 38.183594 -2.117188 L 38.183594 -9.492188 L 37.382812 -10.953125 L 35.847656 -11.609375 L 34.167969 -11.464844 L 32.78125 -11.683594 L 29.058594 -11.753906 L 26.648438 -11.464844 L 25.1875 -11.609375 L 23.582031 -11.535156 L 22.195312 -11.753906 L 20.589844 -11.609375 L 19.054688 -12.339844 L 18.472656 -13.652344 L 18.472656 -18.253906 L 19.128906 -19.785156 L 20.445312 -20.589844 L 22.632812 -20.664062 L 24.96875 -20.445312 L 27.746094 -20.589844 L 30.738281 -20.515625 L 32.199219 -20.664062 L 33.878906 -20.589844 L 35.335938 -21.171875 L 35.847656 -22.632812 L 36.066406 -29.203125 L 35.335938 -31.25 L 33.660156 -32.199219 L 29.351562 -32.199219 L 27.816406 -32.050781 L 24.75 -32.269531 L 20.515625 -32.125 L 18.984375 -32.78125 L 18.398438 -35.046875 L 18.398438 -37.308594 L 19.054688 -38.695312 L 20.664062 -39.28125 L 22.050781 -39.207031 L 23.4375 -39.5 L 33.878906 -39.351562 L 35.265625 -39.425781 L 36.796875 -40.300781 L 37.527344 -41.617188 L 37.457031 -43.078125 L 37.527344 -44.539062 L 37.382812 -48.917969 L 36.726562 -50.304688 L 35.265625 -50.890625 L 33.730469 -50.890625 L 32.417969 -51.179688 L 26.503906 -51.109375 L 24.898438 -50.960938 L 23.4375 -51.109375 L 22.195312 -51.035156 L 20.734375 -51.179688 L 14.75 -51.035156 L 13.289062 -51.253906 L 11.902344 -50.960938 L 10.585938 -51.109375 L 9.125 -50.960938 L 7.667969 -51.035156 L 6.132812 -50.453125 L 5.328125 -48.917969 L 5.476562 -46.144531 L 5.257812 -43.148438 L 5.476562 -41.542969 L 5.328125 -34.390625 L 5.550781 -32.855469 L 5.402344 -31.46875 L 5.328125 -25.480469 L 5.550781 -24.167969 L 5.476562 -12.339844 L 5.328125 -10.953125 L 5.550781 -9.492188 L 5.328125 -4.453125 L 5.476562 -2.847656 L 6.058594 -0.875 L 8.25 0.0742188 L 13.507812 0.144531 L 15.113281 0 L 16.425781 0.0742188 L 19.421875 -0.144531 L 20.808594 0.144531 L 22.488281 0.21875 L 23.949219 0.0742188 Z M 25.40625 0.21875 "/></g></g></g><g fill="#101010" fill-opacity="1"><g transform="translate(266.08442, 258.328756)"><g><path d="M 19.640625 0.65625 L 25.40625 0.804688 L 26.867188 0.65625 L 28.328125 0.292969 L 29.789062 0.0742188 L 31.25 -0.511719 L 32.5625 -0.65625 L 33.949219 -1.3125 L 38.914062 -4.308594 L 41.03125 -6.5 L 41.761719 -7.519531 L 42.566406 -9.125 L 43.003906 -10.441406 L 43.441406 -11.683594 L 43.878906 -15.332031 L 43.734375 -17.667969 L 42.640625 -21.902344 L 41.835938 -23.070312 L 39.9375 -25.261719 L 38.625 -26.429688 L 37.457031 -27.015625 L 36.140625 -27.816406 L 30.445312 -29.570312 L 28.984375 -29.789062 L 27.527344 -29.863281 L 25.992188 -30.152344 L 23.875 -30.152344 L 20.003906 -30.957031 L 17.304688 -32.269531 L 16.207031 -33.292969 L 15.917969 -35.484375 L 16.28125 -37.457031 L 17.15625 -38.40625 L 18.253906 -39.207031 L 19.421875 -39.863281 L 20.734375 -40.15625 L 23.070312 -40.230469 L 25.40625 -39.9375 L 26.722656 -39.574219 L 28.035156 -38.695312 L 29.277344 -37.675781 L 30.371094 -36.214844 L 31.980469 -35.265625 L 35.410156 -35.558594 L 37.382812 -35.410156 L 38.84375 -35.410156 L 40.15625 -35.265625 L 41.542969 -36.285156 L 42.128906 -37.527344 L 41.835938 -38.914062 L 41.691406 -40.300781 L 39.644531 -44.097656 L 38.039062 -46.289062 L 33.21875 -49.648438 L 29.132812 -51.035156 L 26.285156 -51.621094 L 20.664062 -51.765625 L 19.054688 -51.328125 L 17.597656 -51.253906 L 16.28125 -51.035156 L 13.507812 -50.160156 L 11.023438 -48.699219 L 7.519531 -46.289062 L 4.964844 -42.859375 L 3.652344 -38.84375 L 3.429688 -35.265625 L 3.503906 -33 L 4.015625 -30.082031 L 5.183594 -27.527344 L 7.886719 -24.167969 L 12.851562 -21.464844 L 15.480469 -20.589844 L 26.941406 -19.273438 L 29.570312 -18.035156 L 30.519531 -17.15625 L 30.957031 -15.332031 L 30.371094 -13.507812 L 29.425781 -12.410156 L 26.941406 -11.316406 L 24.679688 -11.171875 L 23.363281 -10.953125 L 19.640625 -11.316406 L 18.398438 -11.972656 L 17.15625 -12.777344 L 14.75 -15.40625 L 13.289062 -15.988281 L 11.972656 -15.84375 L 10.585938 -16.0625 L 4.964844 -15.769531 L 3.652344 -15.1875 L 3.066406 -13.652344 L 3.285156 -12.191406 L 3.578125 -10.734375 L 4.015625 -9.417969 L 5.402344 -6.71875 L 6.425781 -5.769531 L 7.375 -4.671875 L 9.929688 -3.066406 L 10.953125 -1.972656 L 12.339844 -1.3125 L 13.800781 -0.875 L 16.648438 0.144531 Z M 19.640625 0.65625 "/></g></g></g><g fill="#101010" fill-opacity="1"><g transform="translate(322.594011, 258.328756)"><g><path d="M 19.640625 0.65625 L 25.40625 0.804688 L 26.867188 0.65625 L 28.328125 0.292969 L 29.789062 0.0742188 L 31.25 -0.511719 L 32.5625 -0.65625 L 33.949219 -1.3125 L 38.914062 -4.308594 L 41.03125 -6.5 L 41.761719 -7.519531 L 42.566406 -9.125 L 43.003906 -10.441406 L 43.441406 -11.683594 L 43.878906 -15.332031 L 43.734375 -17.667969 L 42.640625 -21.902344 L 41.835938 -23.070312 L 39.9375 -25.261719 L 38.625 -26.429688 L 37.457031 -27.015625 L 36.140625 -27.816406 L 30.445312 -29.570312 L 28.984375 -29.789062 L 27.527344 -29.863281 L 25.992188 -30.152344 L 23.875 -30.152344 L 20.003906 -30.957031 L 17.304688 -32.269531 L 16.207031 -33.292969 L 15.917969 -35.484375 L 16.28125 -37.457031 L 17.15625 -38.40625 L 18.253906 -39.207031 L 19.421875 -39.863281 L 20.734375 -40.15625 L 23.070312 -40.230469 L 25.40625 -39.9375 L 26.722656 -39.574219 L 28.035156 -38.695312 L 29.277344 -37.675781 L 30.371094 -36.214844 L 31.980469 -35.265625 L 35.410156 -35.558594 L 37.382812 -35.410156 L 38.84375 -35.410156 L 40.15625 -35.265625 L 41.542969 -36.285156 L 42.128906 -37.527344 L 41.835938 -38.914062 L 41.691406 -40.300781 L 39.644531 -44.097656 L 38.039062 -46.289062 L 33.21875 -49.648438 L 29.132812 -51.035156 L 26.285156 -51.621094 L 20.664062 -51.765625 L 19.054688 -51.328125 L 17.597656 -51.253906 L 16.28125 -51.035156 L 13.507812 -50.160156 L 11.023438 -48.699219 L 7.519531 -46.289062 L 4.964844 -42.859375 L 3.652344 -38.84375 L 3.429688 -35.265625 L 3.503906 -33 L 4.015625 -30.082031 L 5.183594 -27.527344 L 7.886719 -24.167969 L 12.851562 -21.464844 L 15.480469 -20.589844 L 26.941406 -19.273438 L 29.570312 -18.035156 L 30.519531 -17.15625 L 30.957031 -15.332031 L 30.371094 -13.507812 L 29.425781 -12.410156 L 26.941406 -11.316406 L 24.679688 -11.171875 L 23.363281 -10.953125 L 19.640625 -11.316406 L 18.398438 -11.972656 L 17.15625 -12.777344 L 14.75 -15.40625 L 13.289062 -15.988281 L 11.972656 -15.84375 L 10.585938 -16.0625 L 4.964844 -15.769531 L 3.652344 -15.1875 L 3.066406 -13.652344 L 3.285156 -12.191406 L 3.578125 -10.734375 L 4.015625 -9.417969 L 5.402344 -6.71875 L 6.425781 -5.769531 L 7.375 -4.671875 L 9.929688 -3.066406 L 10.953125 -1.972656 L 12.339844 -1.3125 L 13.800781 -0.875 L 16.648438 0.144531 Z M 19.640625 0.65625 "/></g></g></g></svg>